<?xml version="1.0" standalone="no"?>
<!DOCTYPE svg PUBLIC "-//W3C//DTD SVG 1.1//EN" "http://www.w3.org/Graphics/SVG/1.1/DTD/svg11.dtd" >
<!--
2013-9-30: Created.
-->
<svg>
<metadata>
Created by iconfont
</metadata>
<defs>

<font id="iconfont" horiz-adv-x="1024" >
  <font-face
    font-family="iconfont"
    font-weight="500"
    font-stretch="normal"
    units-per-em="1024"
    ascent="896"
    descent="-128"
  />
    <missing-glyph />
    
    <glyph glyph-name="x" unicode="x" horiz-adv-x="1001"
d="M281 543q-27 -1 -53 -1h-83q-18 0 -36.5 -6t-32.5 -18.5t-23 -32t-9 -45.5v-76h912v41q0 16 -0.5 30t-0.5 18q0 13 -5 29t-17 29.5t-31.5 22.5t-49.5 9h-133v-97h-438v97zM955 310v-52q0 -23 0.5 -52t0.5 -58t-10.5 -47.5t-26 -30t-33 -16t-31.5 -4.5q-14 -1 -29.5 -0.5
t-29.5 0.5h-32l-45 128h-439l-44 -128h-29h-34q-20 0 -45 1q-25 0 -41 9.5t-25.5 23t-13.5 29.5t-4 30v167h911zM163 247q-12 0 -21 -8.5t-9 -21.5t9 -21.5t21 -8.5q13 0 22 8.5t9 21.5t-9 21.5t-22 8.5zM316 123q-8 -26 -14 -48q-5 -19 -10.5 -37t-7.5 -25t-3 -15t1 -14.5
t9.5 -10.5t21.5 -4h37h67h81h80h64h36q23 0 34 12t2 38q-5 13 -9.5 30.5t-9.5 34.5q-5 19 -11 39h-368zM336 498v228q0 11 2.5 23t10 21.5t20.5 15.5t34 6h188q31 0 51.5 -14.5t20.5 -52.5v-227h-327z" />
    

    
    <glyph glyph-name="earth" unicode="&#58948;" d="M830.2062500000001 702.20625c84.99374999999999-84.99374999999999 131.79375-198 131.79375-318.20625s-46.8-233.21249999999998-131.79375-318.20625c-84.99374999999999-84.99374999999999-198-131.79375-318.20625-131.79375s-233.21249999999998 46.8-318.20625 131.79375c-84.99374999999999 84.99374999999999-131.79375 198-131.79375 318.20625s46.8 233.21249999999998 131.79375 318.20625c84.99374999999999 84.99374999999999 198 131.79375 318.20625 131.79375s233.21249999999998-46.8 318.20625-131.79375zM790.409375 105.5625c55.434375 55.434375 92.278125 124.453125 107.465625 199.575-11.840625-17.4375-23.174999999999997-23.90625-30.178124999999998 15.131250000000001-7.228125 63.61875-65.671875 22.978125-102.403125 45.590625-38.671875-26.071875000000002-125.60625000000002 50.681250000000006-110.84062499999999-35.8875 22.78125-39.0375 123.046875 52.25625 73.06875-30.346874999999997-31.893749999999997-57.65624999999999-116.578125-185.39999999999998-105.55312500000001-251.60625 1.378125-96.46875-98.55000000000001-20.109375-133.003125 11.86875-23.174999999999997 64.09687500000001-7.903125000000001 176.11874999999998-68.45625000000001 207.50625-65.75625 2.8687499999999995-122.17500000000003 8.83125-147.65625 82.321875-15.328125000000002 52.59375 16.3125 130.86562499999997 72.675 142.95937500000002 82.490625 51.834375 111.9375-60.693749999999994 189.30937500000002-62.775000000000006 24.01875 25.14375 89.49374999999999 33.131249999999994 94.921875 61.31250000000001-50.765625 8.943750000000001 64.40625 42.665625-4.865625 61.846875-38.19375-4.5-62.83125-39.628125000000004-42.525-69.384375-74.025-17.268749999999997-76.415625 107.12812500000001-147.571875 67.89375-1.7999999999999998-62.043749999999996-116.21249999999999-20.109375-39.571875-7.5375000000000005 26.325000000000003 11.503124999999999-42.946875 44.83125-5.5125 38.784375 18.39375 1.0125 80.26875000000001 22.696875000000002 63.534375 37.265625 34.453125 21.403125000000003 63.42187499999999-51.243750000000006 97.14375000000001 1.659375 24.35625 40.668749999999996-10.209375000000001 48.178125-40.724999999999994 27.5625-17.2125 19.265625 30.375000000000007 60.890625 72.365625 78.8625 13.978125 5.990625 27.365624999999998 9.253125 37.575 8.325 21.15-24.412499999999998 60.24374999999999-28.659374999999997 62.296874999999986 2.925-52.36875 25.087500000000002-110.109375 38.334375-169.875 38.334375-85.809375 0-167.4-27.253125-234.928125-77.68125 18.140625-8.325 28.4625-18.675 10.968750000000002-31.893749999999997-13.584375-40.471875000000004-68.70937500000001-94.80937499999999-117.08437500000001-87.13125-25.115624999999998-43.3125-41.68125-91.06875-48.740625-141.103125 40.528125-13.415624999999999 49.865624999999994-39.93749999999999 41.175000000000004-48.824999999999996-20.64375-18-33.32812500000001-43.537499999999994-39.88125-71.465625 13.190624999999999-80.71875000000001 51.13125-155.109375 110.109375-214.0875 74.36250000000001-74.36250000000001 173.25-115.31249999999999 278.40937499999995-115.31249999999999s204.046875 40.95 278.40937499999995 115.31249999999999z"  horiz-adv-x="1024" />

    
    <glyph glyph-name="capital-1" unicode="&#59008;" d="M512 468.375c-46.603125 0-84.375-37.771875-84.375-84.375 0-46.603125 37.771875-84.375 84.375-84.375 46.603125 0 84.375 37.771875 84.375 84.375C596.375 430.5890625 558.6031250000001 468.375 512 468.375zM512 651.1875c-147.5578125 0-267.1875-119.61562500000001-267.1875-267.1875 0-147.5578125 119.62968749999999-267.1875 267.1875-267.1875 147.5578125 0 267.1875 119.62968749999999 267.1875 267.1875C779.1875 531.5578125 659.5578125 651.1875 512 651.1875zM512 201.1875c-100.96874999999999 0-182.8125 81.8578125-182.8125 182.8125 0 100.96874999999999 81.84375000000001 182.8125 182.8125 182.8125 100.96874999999999 0 182.8125-81.84375000000001 182.8125-182.8125C694.8125 283.03125 612.96875 201.1875 512 201.1875zM512 834C263.4734375 834 62 632.5265625 62 384c0-248.52656249999998 201.4734375-450 450-450 248.52656249999998 0 450 201.4734375 450 450C962 632.5265625 760.5265625 834 512 834zM512 18.375C310.0765625 18.375 146.375 182.0625 146.375 384 146.375 585.9234375 310.0765625 749.625 512 749.625c201.92343749999998 0 365.625-163.68750000000003 365.625-365.625C877.625 182.0625 713.9375 18.375 512 18.375z"  horiz-adv-x="1024" />

    
    <glyph glyph-name="polygon" unicode="&#59279;" d="M512.186 782.005l443.547-307.134-133.065-394.887-478.18-96.365-275.851 447.375 443.548 351.010z"  horiz-adv-x="1024" />

    
    <glyph glyph-name="city-1" unicode="&#58898;" d="M511.705799 395.6068936666666m-127.921461 0a125.008 125.008 0 1 1 255.842922 0 125.008 125.008 0 1 1-255.842922 0ZM511.705799 656.5745326666666c69.706595 0 135.24117-27.145244 184.531783-76.435856 49.28959-49.28959 76.434833-114.824165 76.434833-184.531783s-27.145244-135.24117-76.434833-184.531783c-49.290613-49.28959-114.825189-76.434833-184.531783-76.434833s-135.24117 27.145244-184.531783 76.434833c-49.290613 49.290613-76.435856 114.825189-76.435856 184.531783s27.145244 135.24117 76.435856 184.531783C376.464629 629.4292896666666 441.999205 656.5745326666666 511.705799 656.5745326666666M511.705799 779.3712766666666c-211.94718 0-383.76336-171.817204-383.76336-383.76336 0-211.94718 171.817204-383.76336 383.76336-383.76336 211.94718 0 383.76336 171.816181 383.76336 383.76336C895.46916 607.5540726666667 723.652979 779.3712766666666 511.705799 779.3712766666666L511.705799 779.3712766666666z"  horiz-adv-x="1024" />

    
    <glyph glyph-name="save" unicode="&#59052;" d="M343.1862555664062 159.76633681640624l112.6217478515625 0 0-169.85616591796875-112.6217478515625 0L343.1862555664062 159.76633681640624zM117.89322294921874 778.9822696289062l0-675.1135617187499 112.806193359375-112.58485927734375 55.008251367187505 0L285.70766767578124 216.00562822265624l394.6805314453125 0 0-224.62586806640624L905.5928735351563-8.620239843749914 905.5928735351563 778.9822696289062 117.89322294921874 778.9822696289062zM795.6043015625 382.573398046875L227.88039042968745 382.573398046875 227.88039042968745 724.1739219726562l567.7239111328126 0L795.6043015625 382.573398046875zM360.27466982421873-8.620239843749914l95.5331578125 0 0-0.09573574218749999-95.5331578125 0L360.27466982421873-8.620239843749914z"  horiz-adv-x="1024" />

    
    <glyph glyph-name="polyline" unicode="&#58965;" d="M885.632 832l-262.016-615.744c-1.216-3.008-3.008-5.056-4.992-5.056-0.128 0-0.128 0-0.256 0-1.856 0-3.648 1.472-4.864 3.776l-290.304 554.944-263.168-557.888 65.216-130.304 197.632 413.76c1.344 3.136 3.2 4.8 5.056 4.8 1.664 0 3.456-1.344 4.8-4.032l291.392-560.256 331.904 773.184-70.4 122.816z"  horiz-adv-x="1024" />

    
    <glyph glyph-name="rule" unicode="&#58895;" d="M895.2435546875 614.6232421875l-216.55810546875 216.49658203125-549.9298828125-549.994921875 216.55810546875-216.4939453125 549.9298828125 549.99228515625zM650.7582031249999 749.06162109375l135.35068359375-135.31376953125-27.492187500000004-27.49658203125-135.34892578125002 135.30498046875 27.490429687499997 27.50625zM568.274609375 666.5595703125l81.20742187500001-81.18369140625-27.49658203125-27.50625-81.20742187500001 81.1828125 27.49658203125 27.50712890625zM485.77783203125 584.0575195312499l81.2109375-81.1828125-27.492187500000004-27.503613281249997-81.20742187500001 81.18369140625 27.488671874999998 27.50185546875zM403.28896484375 501.56162109375l81.21357421875001-81.18369140625-27.49658203125-27.50625-81.21181640625 81.19335937499999 27.49482421875 27.49658203125zM320.80712890625 419.06044921874997l81.20830078125-81.18369140625-27.49658203125-27.500976562499996-81.20830078125 81.1828125 27.49658203125 27.50185546875zM238.32001953124995 336.56367187499995l135.34716796875-135.312890625-27.49658203125-27.49833984375-135.34716796875 135.31464843749998 27.49658203125 27.49658203125zM160.69326171874997-63.118945312500045h734.55029296875v63.87626953125001h-734.55029296875v-63.87626953125001zM160.69326171874997-63.118945312500045z"  horiz-adv-x="1024" />

    
    <glyph glyph-name="marker" unicode="&#58896;" d="M512.067-96s-360.067 401.206-360.067 600.067c0 198.861 161.206 359.933 360.067 359.933s360.067-161.206 360.067-360.067c-0.134-198.727-360.067-599.933-360.067-599.933zM512.067 639.946c-75.042 0-135.879-60.837-135.879-135.879s60.837-135.879 135.879-135.879c75.042 0 135.879 60.837 135.879 135.879 0 75.042-60.837 135.879-135.879 135.879z"  horiz-adv-x="1024" />

    
    <glyph glyph-name="capital" unicode="&#58881;" d="M62 834v-899.9999885742188h899.9999885742188V834H62z m112.4999982421875-112.4999982421875h674.9999920898438v-674.9999920898438H174.49999824218747V721.5000017578125zM411.7511261583213 484.2488738416787h200.4977404108388v-200.4977404108388H411.7511261583213zM255.73367765426633 640.2663223457337v-510.55509558677676h510.55509558677676V640.2663223457337H255.73367765426633z m63.81913985252381-63.81913985252381h382.91681665420526v-382.91681665420526H319.5528175067903V576.4471824932098z"  horiz-adv-x="1024" />

    
    <glyph glyph-name="cavalryman" unicode="&#58882;" d="M375.31250000000006-66c47.449124999999995 409.54275-37.85175 323.28675-51.215624999999996 361.56149999999997-8.911125 25.5195-12.180375 116.47125000000001-32.926500000000004 185.20087500000002L150.31250000000006 441.65625l-15.46875-16.3125c-43.070625-10.850624999999999-70.758 3.5133750000000004-70.957125 4.147875-0.356625 1.1385 16.727624999999996 25.970625 59.425875 38.602124999999994l20.2635-6.51375c73.431 21.616875 140.73749999999998 41.34375 140.73749999999998 41.34375-6.316875 18.57375-13.458375 32.865750000000006-22.58325 42.594750000000005-5.27625-7.917749999999999-75.47625000000001-68.67225-85.9185-66.439125-7.2798750000000005 1.558125-35.004375 20.514375-38.643750000000004 26.986500000000003-5.056874999999999 18.60525 61.9785 145.62900000000002 106.74225 188.154 17.213625 8.1 14.508-27.716625 17.213625-34.420500000000004 133.851375-68.85 137.18024999999997-102.5865 169.086375-105.70275 20.485125-2.00025 53.02575 105.541875 109.544625 161.12699999999998-60.94124999999999 94.58662500000001 26.176499999999997 92.163375 34.632000000000005 98.685-15.187500000000004 39.891375000000004 122.5125 3.0374999999999996 121.50000000000003-24.502499999999998-31.993874999999996 3.0374999999999996-47.09250000000001-12.011625-61.331625-15.187500000000004-19.426499999999997-4.334625000000001-26.649 15.377624999999998-45.183375 15.794999999999998 37.67175-72.167625 39.1905-140.85000000000002 35.0595-189.939375l331.603875 95.902875L962 674.505375l-339.94575-97.396875c-3.5572500000000002-32.85-7.4857499999999995-44.737875-2.410875-49.330125 16.402500000000003-21.87 103.47749999999999 31.28625 185.79375000000002-40.095C828.20375 467.94300000000004 815.1875000000001 530.8125 897.3125 434.0625c64.12499999999999-84.375 66.37162500000001-247.14675 64.6875-261-88.3125 82.125-93.1635 247.43925000000002-136.6875 276.75 26.999999999999996-84.375-48.42787500000001-151.975125-28.374750000000002-268.822125-20.252250000000004-29.558249999999997-82.68975-200.8215-67.50224999999999-246.99037499999997H667.8125s50.663250000000005 94.7115 39.62025 261.160875c-2.530125 38.146499999999996-29.119500000000002 67.52587500000001-34.230375 125.02237500000001 0 0-113.389875-68.369625-216.66712499999997-47.494125C439.4375 232.6875 423.839375-27.118875000000116 421.70525000000004-66h-38.587500000000006"  horiz-adv-x="1024" />

    
    <glyph glyph-name="ancient-soldier" unicode="&#58883;" d="M602.3744140624999 768.3755859375001c-21.7494140625-0.7505859375-52.42060546875-4.1651367187499995-68.17060546875-44.102636718750006-16.25537109375-41.218066406249996 22.23369140625-62.397949218750014-13.763671875-88.27294921875 0 0 35.80224609375-6.83525390625 34.871484375-8.4375-117.56249999999999-14.0625-95.02294921875-155.31679687500002-90.56250000000001-159.74999999999997 0 0-19.47919921875-34.2509765625-29.8125-65.25-3.3749999999999996-10.124999999999998-55.6875-1.125-39.93749999999999-57.188671875-1.7806640624999999-6.7060546875-298.02392578125-281.703515625-298.46162109375007-282.701953125l-25.533984375-43.171875s42.60410156249999 17.601855468750003 48.088476562500006 24.001171875L434.93662109375 320.4374999999999c37.6875 5.625 50.3208984375 58.29169921875 51.75 60.1875-0.76640625-1.796484375-55.1654296875-143.694140625-52.147265625-155.084765625 8.20546875-3.7125 22.08515625-6.0978515625 31.222265625000002-6.01962890625-6.0626953125-9.622265625 22.25390625-118.21201171874999 42.94248046875-114.94248046874999 1.1970703125-13.6740234375-5.9378906250000005-73.6505859375-13.383984374999999-78.52499999999999-0.7875-23.860546874999997-84.03837890625-10.70771484375-61.78798828125001-45.646874999999994 8.426074218750001-13.2310546875 34.3775390625-11.8353515625 48.09287109375-12.65625 19.76748046875-1.184765625 92.83974609375 2.03642578125 103.78212890625001 12.092871093749999 9.90439453125 9.1037109375 2.04521484375 32.90888671875 4.222265625 47.527734375 4.52373046875 30.40224609375 17.462109374999997 60.471386718750004 23.62060546875 91.12939453125 2.88544921875 14.36923828125 6.317578125 46.4572265625 6.7183593749999995 46.825488281249996 3.47255859375-13.40244140625 14.633789062499998-23.45888671875 23.938769531249996-34.168359375 9.945703125000001-11.44775390625 15.299121093750001-24.33955078125 19.993359375-38.506640624999996 9.06416015625-27.35244140625 28.101269531249997-56.74130859375 28.125-86.67773437500001 0.013183593749999998-16.75546875-8.21513671875-32.05810546875-8.96484375-48.41015624999999-0.9079101562499999-19.8228515625 19.712109375-21.568359374999996 37.064355468749994-22.438476562500004 25.064648437499997-1.2568359375 82.125 2.2227539062500004 78.75 37.125-1.125 11.62880859375-20.019726562499997 64.71123046875-21.12451171875 76.75048828125-1.60751953125 17.49814453125 0.8103515625 34.911035156249994 3.12451171875 51.49951171875 3.42333984375 24.53203125-12.0005859375 78.37382812499999-12.0005859375 78.37382812499999-12.820605468750001-0.46933593749999997-162.27333984375002 6.3667968749999995-164.25 166.5-2.02060546875 163.6681640625 177.09785156249998 174.00058593749998 212.25058593749998 163.501171875 0 0-5.36923828125 113.86230468750001-112.07900390625001 132.029296875-2.70263671875 9.03603515625 0.7040039062500001 115.47070312499999-86.67070312499999 126.72070312500001 0 0-11.624414062500001 39.7494140625 57.0005859375 32.625 10.16982421875-1.05556640625 21.673828125 1.7033203125 29.358105468749997 7.72119140625-35.35751953125 20.7791015625-80.53505859375 5.846484375-84.70371093749999 6.0064453124999995-5.2716796875 0.20390625-29.40380859375 24.895898437499998-54.78837890625 17.5447265625 13.7583984375-20.7720703125 47.133984375-31.6458984375 37.3833984375-63.1458984375zM926.748828125 345.37382812500005c0-84.49980468749999-68.5001953125-153.00000000000003-153.00000000000003-153.00000000000003s-153.00000000000003 68.5001953125-153.00000000000003 153.00000000000003c0 84.49980468749999 68.5001953125 153.00000000000003 153.00000000000003 153.00000000000003s153.00000000000003-68.5001953125 153.00000000000003-153.00000000000003z"  horiz-adv-x="1024" />

    
    <glyph glyph-name="archer" unicode="&#58885;" d="M462.570432 242.468814v37.78008H265.098646v-82.920975c0-4.044174 0.260401-7.176943 0.72654-9.691507-3.597914-82.716232-3.839431-184.201249-3.839431-264.754758 0-28.10547 22.831843-50.881654 50.939301-50.881654s50.900538 22.831843 50.900538 50.881654c0 78.821143 0.204743 220.098885 3.615804 300.038164 18.470615-99.044001 45.867435-246.732391 81.689535-320.631747 8.797992-18.170458 26.949565-28.758461 45.867434-28.758461 7.437345 0 15.003896 1.676707 22.178852 5.087768 25.290748 12.265705 35.842972 42.700873 23.577267 68.02939-42.495136 87.748342-64.413586 211.766038-78.187036 295.825027zM341.871364 690.622744c3.447835-14.967122 0.838851-30.362614-7.32404-43.371755-7.977032-12.693081-20.333181-21.563628-34.853049-25.143652 12.562881-8.258305 27.565783-13.103562 43.725583-13.103561 16.364543 0 31.536408 4.938683 44.190728 13.383841h-37.388485l19.737836 32.299722-18.806552 34.088741h72.017905c0 44.043631-35.711777 79.75342-79.75342 79.75342-26.932669 0-50.695795-13.399743-65.123229-33.809455 2.516552 0.317054 5.050994 0.539687 7.548661 0.539687 26.949565-0.020872 49.968261-18.358304 56.027068-44.638976zM915.701807 656.887831L867.540454 699.568827v-32.614789h-70.620484C765.292123 859.150209 651.244225 894.394853 645.633667 896l-5.087768-17.799733c1.267221-0.353828 106.517126-32.914946 137.492976-211.245235h-343.501358l-6.933438 12.693081H374.076666l13.17711-23.913204-13.17711-21.583506h53.510517l5.721875 12.693081h347.825811c2.255156-16.830682 3.858315-34.871933 4.697166-54.14363-6.616384 3.70923-14.239588 6.002155-22.347814 6.002155H363.881252c-3.876205 0-7.586429-0.615223-11.201239-1.509733-34.069856-3.858315-62.847202-25.143651-77.384959-54.703195-53.175573 45.383406-52.98872 64.302269-53.025494 64.30227 0.057646 0.131195 7.60432 14.723617 64.637213 27.78941 22.514789 5.16231 36.568518 27.584667 31.406208 50.098462-5.14442 22.514789-27.602557 36.511866-50.098462 31.406207-27.713874-6.356977-112.072027-25.720113-127.260788-89.891187-14.425447-60.983641 43.109366-116.917283 87.654916-153.68955 7.771295-6.430525 17.203394-9.561306 26.596731-9.561307 3.354408 0 6.653158 0.502913 9.934018 1.286105v-161.723234h197.471786V499.122302c0 2.367467-0.204743 4.679275-0.372712 7.006986h301.193074c7.791173 0 15.003896 2.105078 21.434421 5.480358-16.253227-230.107446-143.849952-284.716221-145.190721-285.256901l6.876785-17.221284c6.225782 2.516552 147.837474 62.177314 157.957352 322.309448 3.28086 6.318215 5.23884 13.383841 5.23884 20.986172 0 7.287266-1.864554 14.071619-4.84625 20.202981-0.391596 26.858127-2.141852 51.55353-5.050994 74.218398h67.750105v-32.614789l48.103707 42.662111z"  horiz-adv-x="1024" />

    
    <glyph glyph-name="county" unicode="&#58886;" d="M232.669437 663.330563v-558.661113h558.661113V663.330563z m100.552959-99.272959l360.115195-1.28v-358.835195l-361.395195-1.28z"  horiz-adv-x="1024" />

    
    <glyph glyph-name="province" unicode="&#58887;" d="M108.06762412109373 787.9323758789062V-19.93123945312493H915.9312394531249V787.9312508789062H108.06874912109379z m100.98337412109375-100.98337412109375h605.8979920898437v-605.8979920898437H209.05099824218752V686.9490017578125zM315.0877319030762 580.9122680969238v-391.93136224365236h391.93136224365236v391.9324169311524z m71.1386710510254-70.0839835510254h253.8717154541016l1.0546875-254.92640295410155-253.8706615905762 1.0546875z"  horiz-adv-x="1024" />

    
    <glyph glyph-name="mountain-gun" unicode="&#58888;" d="M679.5423828124999 395.66220703125c-104.82275390625 0-189.7962890625-84.97177734374999-189.7962890625-189.7962890625 0-104.82275390625 84.97353515625-189.7962890625 189.7962890625-189.7962890625 104.82451171874999 0 189.7962890625 84.97353515625 189.7962890625 189.7962890625 0.0017578124999999998 104.82451171874999-84.97177734374999 189.7962890625-189.7962890625 189.7962890625z m0-314.25556640625c-68.73574218750001 0-124.45927734375 55.72177734375-124.45927734375 124.45927734375s55.72177734375 124.46103515625 124.45927734375 124.46103515625 124.46103515625-55.72177734375 124.46103515625-124.46103515625c0-68.73574218750001-55.72177734375-124.45927734375-124.46103515625-124.45927734375zM712.25263671875 205.86591796874995c0-18.06591796875-14.645214843749999-32.71025390625-32.71025390625-32.71025390625s-32.71025390625 14.645214843749999-32.71025390625 32.71025390625c0 18.06591796875 14.645214843749999 32.71025390625 32.71025390625 32.71025390625s32.71025390625-14.645214843749999 32.71025390625-32.71025390625zM831.47099609375 542.71025390625l132.25078125 50.5529296875-28.920410156250004 75.659765625-358.05146484375-136.8615234375L441.0212890625 748.0552734375l-24.127734375000003-15.457324218750001 129.37236328125-212.18994140625-224.9279296875-85.97724609374998 29.1076171875-75.5912109375-53.032324218750006-20.131347656250004 51.478417968749994-118.72177734375L62.003515625000034 53.999707031249955v-38.25000000000001l48.75029296875 0.319921875 345.75029296875005 143.680078125v46.0828125c0 94.23193359375001 59.98623046875001 174.7423828125 142.89257812500003 206.7732421875l246.91992187500003 90.643359375-14.93876953125 39.460253906249996z"  horiz-adv-x="1025" />

    
    <glyph glyph-name="city" unicode="&#58889;" d="M126.561278 769.438722v-770.877431h770.877431V769.438722H126.561278z m96.359679-96.359679h578.158073v-578.158073H222.920957V673.079043zM377.096955 518.903045h269.806077v-269.806077H377.096955z"  horiz-adv-x="1024" />

    
    <glyph glyph-name="province-" unicode="&#58890;" d="M511.999994375 840A455.99999437499997 455.99999437499997 0 0 1 56 384.000005625a455.99999437499997 455.99999437499997 0 0 1 455.99999437499997-455.99999437499997 455.99999437499997 455.99999437499997 0 0 1 455.99999437499997 455.99999437499997A455.99999437499997 455.99999437499997 0 0 1 511.999994375 840z m0-143.999998125a311.99999625000004 311.99999625000004 0 0 0 311.9999953125-311.99999625000004 311.99999625000004 311.99999625000004 0 0 0-311.9999953125-311.9999953125 311.99999625000004 311.99999625000004 0 0 0-311.99999625000004 311.9999953125 311.99999625000004 311.99999625000004 0 0 0 311.99999625000004 311.99999625000004zM510.799994375 840A455.99999437499997 455.99999437499997 0 0 1 54.80000000000001 384.000005625a455.99999437499997 455.99999437499997 0 0 1 455.99999437499997-455.99999437499997 455.99999437499997 455.99999437499997 0 0 1 455.99999437499997 455.99999437499997A455.99999437499997 455.99999437499997 0 0 1 510.799994375 840z m0-143.999998125a311.99999625000004 311.99999625000004 0 0 0 311.9999953125-311.99999625000004 311.99999625000004 311.99999625000004 0 0 0-311.9999953125-311.9999953125 311.99999625000004 311.99999625000004 0 0 0-311.99999625000004 311.9999953125 311.99999625000004 311.99999625000004 0 0 0 311.99999625000004 311.99999625000004zM511.999994375 624.0000028125a239.9999971875 239.9999971875 0 0 1-239.9999971875-239.9999971875 239.9999971875 239.9999971875 0 0 1 239.9999971875-239.99999625 239.9999971875 239.9999971875 0 0 1 239.99999625 239.99999625 239.9999971875 239.9999971875 0 0 1-239.99999625 239.9999971875z m0-116.57159812500001A123.428398125 123.428398125 0 0 0 635.4283925000001 384.000005625 123.428398125 123.428398125 0 0 0 511.999994375 260.5716074999999 123.428398125 123.428398125 0 0 0 388.5715953125 384.000005625 123.428398125 123.428398125 0 0 0 511.999994375 507.4284046875z"  horiz-adv-x="1024" />

    
    <glyph glyph-name="triangle" unicode="&#58891;" d="M956.7664885742188 7.964260546875039H67.23349999999999L511.99999472656253 778.3215008789062z"  horiz-adv-x="1024" />

    
    <glyph glyph-name="castle" unicode="&#58892;" d="M835.9999903320313 456.4166719401041h22.5v-22.499999121093747h-22.5z m-44.999999121093744 0h22.499999121093747v-22.499999121093747h-22.499999121093747z m-45 0h22.5v-22.499999121093747h-22.5z m-44.999999121093744 0h22.5v-22.499999121093747h-22.5z m-44.999999121093744 0h22.499999121093747v-22.499999121093747h-22.499999121093747z m-45 0h22.5v-22.499999121093747h-22.5z m-44.999999121093744 0h22.5v-22.499999121093747h-22.5z m-45 0h22.5v-22.499999121093747h-22.5z m-44.999999121093744 0h22.5v-22.499999121093747h-22.5z m-44.999999121093744 0h22.499999121093747v-22.499999121093747h-22.499999121093747z m-45 0h22.5v-22.499999121093747h-22.5z m-44.999999121093744 0h22.5v-22.499999121093747h-22.5z m-44.999999121093744 0h22.499999121093747v-22.499999121093747h-22.499999121093747z m-45 0h22.5v-22.499999121093747h-22.5z m-44.999999121093744 0h22.5v-22.499999121093747h-22.5z m-44.999999121093744 0h22.499999121093747v-22.499999121093747H160.99999912109377z m0 0h22.499999121093747v-22.499999121093747H160.99999912109377z m183.72824736328127 312.890621484375l-102.30637412109377-68.48662412109375 91.61549912109375 1.125-0.532125-44.153999121093754L289.2499973632813 658.9166701822917 153.12499912109377 567.7916710611978h133.8749982421875l-1.125-88.87499912109375H129.49999912109377L62 6.416678092448024h382.49999560546877V185.29167545572932s0 88.87499912109375 88.8749982421875 88.87499912109375c91.12499912109375 0 91.12499912109375-88.87499912109375 91.12499912109375-88.87499912109375v-178.87499736328124h337.49999560546877l-67.49999912109375 472.4999938476563H738.1249912109375l-1.125 89.99999912109375 134.9999982421875 1.125-133.8749982421875 88.87499912109375-46.23074912109375 1.125-0.5332500000000001 41.62499912109375 91.33312412109375 0.846-100.61212412109376 66.79462412109375z"  horiz-adv-x="1024" />

    
    <glyph glyph-name="tank" unicode="&#58893;" d="M361.12958984375 484.77503255208336l27.43681640625 0.10634765624999999 15.53818359375-14.697070312500001 2.4117187500000004-15.350976562500001h293.776171875l36.70927734375 52.0857421875v60.471386718750004l-31.507910156249995 24.692871093749996-35.05693359375 0.38583984375-0.37529296875 37.135546875 18.938671874999997 0.16611328125v38.06279296875l156.37499999999997 20.74921875-1.1232421875 9-263.59541015624995-28.999511718749996 3.1095703125-26.4375 67.897265625 6.00029296875 1.0863281249999999-56.8125h-8.74951171875l-12.9990234375 22.5h-72.5009765625l-10.49853515625-21.346875-77.37626953125-4.2978515625-50.9818359375-22.88056640625-3.0612304687500003-6.975h-30.706347656249996l0.09316406249999999-19.50029296875h-23.96865234375l-7.36171875-9.8578125-292.63798828125-2.14189453125v-28.50029296875l293.122265625-1.69189453125zM702.16103515625 448.8330403645833H307.56201171874994L189.15927734374998 316.4952473958334s-90.1634765625-5.10029296875-88.35732421875001-74.37744140625c2.8951171875000004-110.99707031250001 107.45068359374999-147.2853515625 139.33388671875002-153.284765625H791.3779296875c33.1875 7.49970703125 104.62500000000001 39.375 156.69580078125 140.09414062499997 5.2576171875 10.168066406250002 13.92890625 41.467675781249994 13.92890625 41.467675781249994V393.7097981770833l-259.8416015625 55.123242187500004zM233.00263671874995 112.64173177083342c-25.681640624999996 0-46.500292968749996 20.81865234375-46.500292968749996 46.500292968749996s20.81865234375 46.500292968749996 46.500292968749996 46.500292968749996 46.500292968749996-20.81865234375 46.500292968749996-46.500292968749996-20.81865234375-46.500292968749996-46.500292968749996-46.500292968749996z m110.40029296875-0.25048828124999994c-25.681640624999996 0-46.500292968749996 20.81865234375-46.500292968749996 46.500292968749996s20.81865234375 46.500292968749996 46.500292968749996 46.500292968749996 46.500292968749996-20.81865234375 46.500292968749996-46.500292968749996-20.81865234375-46.500292968749996-46.500292968749996-46.500292968749996z m110.40029296875 0c-25.681640624999996 0-46.500292968749996 20.81865234375-46.500292968749996 46.500292968749996s20.81865234375 46.500292968749996 46.500292968749996 46.500292968749996 46.500292968749996-20.81865234375 46.500292968749996-46.500292968749996-20.81865234375-46.500292968749996-46.500292968749996-46.500292968749996z m110.3994140625 0c-25.681640624999996 0-46.500292968749996 20.81865234375-46.500292968749996 46.500292968749996s20.81865234375 46.500292968749996 46.500292968749996 46.500292968749996 46.500292968749996-20.81865234375 46.500292968749996-46.500292968749996-20.81865234375-46.500292968749996-46.500292968749996-46.500292968749996z m110.40029296875 0c-25.681640624999996 0-46.500292968749996 20.81865234375-46.500292968749996 46.500292968749996s20.81865234375 46.500292968749996 46.500292968749996 46.500292968749996 46.500292968749996-20.81865234375 46.500292968749996-46.500292968749996-20.81865234375-46.500292968749996-46.500292968749996-46.500292968749996z m110.40029296875 0c-25.681640624999996 0-46.500292968749996 20.81865234375-46.500292968749996 46.500292968749996s20.81865234375 46.500292968749996 46.500292968749996 46.500292968749996 46.500292968749996-20.81865234375 46.500292968749996-46.500292968749996-20.81865234375-46.500292968749996-46.500292968749996-46.500292968749996z"  horiz-adv-x="1025" />

    
    <glyph glyph-name="hole" unicode="&#58897;" d="M313.157-51.699c-12.067 19.819-285.549 466.562-287.795 470.126l-2.524 4.005 239.148 189.209c131.531 104.066 239.908 189.237 240.842 189.271 2.407 0.090 476.901-328.572 476.901-330.327 0-1.923-138.75-423.761-139.723-424.796-0.415-0.442-116.954-24.1-258.976-52.576-142.021-28.476-259.299-52.027-260.617-52.335-2.012-0.473-3.172 0.714-7.258 7.423zM655.728 250.158c82.558 80.475 149.957 146.756 149.775 147.29-0.181 0.534-64.754 49.111-143.497 107.951-78.742 58.838-143.735 107.43-144.429 107.983-0.863 0.686-47.202-44.607-146.783-143.473-80.035-79.462-145.36-144.959-145.164-145.548 0.196-0.589 60.774-52.769 134.619-115.956l134.263-114.885 5.555 5.161c3.056 2.838 73.102 71.004 155.66 151.479z"  horiz-adv-x="1024" />

    
    <glyph glyph-name="shape" unicode="&#58899;" d="M474.982 364.702c-245.957 32.375-447.51 59.18-447.897 59.566-0.502 0.502 385.060 306.572 469.973 373.077l6.364 4.983 238.275-164.89c131.052-90.69 238.492-165.065 238.755-165.276 0.265-0.212-11.766-37.625-26.734-83.138-18.85-57.316-27.879-82.818-29.379-82.969-1.19-0.119-203.402 26.271-449.358 58.645zM225.845 77.439c-50.414 75.015-91.261 136.791-90.771 137.281 0.755 0.756 691.103-167.094 697.438-169.574 1.767-0.691-508.045-104.020-513.523-104.080-0.815-0.010-42.73 61.36-93.143 136.374z"  horiz-adv-x="1024" />

    
    <glyph glyph-name="close" unicode="&#59069;" d="M962 744L872 834 512 474 152 834 62 744l360-360L62 24 152-66l360 360 360-360 90 90-360 360z"  horiz-adv-x="1024" />

    
    <glyph glyph-name="folder-open" unicode="&#58900;" d="M853.333333 640h-341.333333l-85.333333 85.333333H170.666667c-46.933333 0-84.906667-38.4-84.906667-85.333333L85.333333 128c0-46.933333 38.4-85.333333 85.333334-85.333333h682.666666c46.933333 0 85.333333 38.4 85.333334 85.333333V554.666667c0 46.933333-38.4 85.333333-85.333334 85.333333z m0-512H170.666667V554.666667h682.666666v-426.666667z"  horiz-adv-x="1024" />

    
    <glyph glyph-name="download" unicode="&#58901;" d="M830.5777781333334 499.2h-182.04444479999998V772.2666666666667H375.4666666666667v-273.06666666666666H193.4222218666667l318.57777813333337-318.57777813333337 318.57777813333337 318.57777813333337zM193.4222218666667 89.60000000000002v-91.02222186666665h637.1555562666667v91.02222186666665H193.4222218666667z"  horiz-adv-x="1024" />

    
    <glyph glyph-name="undo" unicode="&#58903;" d="M533.333333 554.666667c-113.066667 0-215.466667-42.24-294.4-110.933334L85.333333 597.333333v-384h384l-154.453333 154.453334c59.306667 49.493333 134.826667 80.213333 218.453333 80.213333 151.04 0 279.466667-98.56 324.266667-234.666667l101.12 33.28C899.413333 425.386667 731.733333 554.666667 533.333333 554.666667z"  horiz-adv-x="1024" />

    
    <glyph glyph-name="remove" unicode="&#58904;" d="M898.6354308841876 328.7663666466766H125.3645691158124v110.4672667066469h773.2708617683753v-110.4672667066469z"  horiz-adv-x="1024" />

    
    <glyph glyph-name="done" unicode="&#58905;" d="M384 204.79999999999995L204.8 384l-59.733333-59.733333L384 85.33333300000004 896 597.333333l-59.733333 59.733334L384 204.79999999999995z"  horiz-adv-x="1024" />

    
    <glyph glyph-name="add" unicode="&#58906;" d="M898.6354308841876 328.7663666466766h-331.4017975308642v-331.4017975308642h-110.4672667066469v331.4017975308642H125.3645691158124v110.4672667066469h331.4017975308642V770.6354308841876h110.4672667066469v-331.4017975308642h331.4017975308642v-110.4672667066469z"  horiz-adv-x="1024" />

    
    <glyph glyph-name="more_vert" unicode="&#58907;" d="M512 554.666667c46.933333 0 85.333333 38.4 85.333333 85.333333s-38.4 85.333333-85.333333 85.333333-85.333333-38.4-85.333333-85.333333 38.4-85.333333 85.333333-85.333333z m0-85.333334c-46.933333 0-85.333333-38.4-85.333333-85.333333s38.4-85.333333 85.333333-85.333333 85.333333 38.4 85.333333 85.333333-38.4 85.333333-85.333333 85.333333z m0-256c-46.933333 0-85.333333-38.4-85.333333-85.333333s38.4-85.333333 85.333333-85.333333 85.333333 38.4 85.333333 85.333333-38.4 85.333333-85.333333 85.333333z"  horiz-adv-x="1024" />

    
    <glyph glyph-name="redo" unicode="&#58908;" d="M785.066667 443.733333C706.133333 512.426667 603.733333 554.666667 490.666667 554.666667c-198.4 0-366.08-129.28-424.96-308.053334L166.4 213.33333300000004a341.418667 341.418667 0 0 0 324.266667 234.666667c83.2 0 159.146667-30.72 218.453333-80.213333L554.666667 213.33333300000004h384V597.333333l-153.6-153.6z"  horiz-adv-x="1024" />

    
    <glyph glyph-name="layers" unicode="&#58909;" d="M511.5145477688889 43.75893333333329l-357.7780144355555 278.1639111111111L75.0933333333333 260.755911111111l436.9066666666667-339.8162966755556 436.9066666666667 339.8162966755556-79.1286522311111 61.652385564444444-358.26346666666666-278.6493633422222zM512 167.06370332444442l357.2925633422222 278.1639111111111L948.9066666666668 506.88l-436.9066666666667 339.8162966755556-436.9066666666667-339.8162966755556 79.1286522311111-61.652385564444444L512 167.06370332444442z"  horiz-adv-x="1024" />

    
    <glyph glyph-name="delete" unicode="&#58910;" d="M256 85.33333300000004c0-46.933333 38.4-85.333333 85.333333-85.333333h341.333334c46.933333 0 85.333333 38.4 85.333333 85.333333V597.333333H256v-512zM810.666667 725.333333h-149.333334l-42.666666 42.666667h-213.333334l-42.666666-42.666667H213.333333v-85.333333h597.333334V725.333333z"  horiz-adv-x="1024" />

    
    <glyph glyph-name="ic_file_download_bla" unicode="&#58894;" d="M830.5777781333334 499.2h-182.04444479999998V772.2666666666667H375.4666666666667v-273.06666666666666H193.4222218666667l318.57777813333337-318.57777813333337 318.57777813333337 318.57777813333337zM193.4222218666667 89.60000000000002v-91.02222186666665h637.1555562666667v91.02222186666665H193.4222218666667z"  horiz-adv-x="1024" />

    
    <glyph glyph-name="ic_file_upload_black" unicode="&#58911;" d="M375.4666666666667 180.62222186666668h273.06666666666666v273.06666666666666h182.04444479999998l-318.57777813333337 318.57777813333337-318.57777813333337-318.57777813333337h182.04444479999998z m-182.04444479999998-91.02222186666665h637.1555562666667v-91.02222186666665H193.4222218666667z"  horiz-adv-x="1024" />

    
    <glyph glyph-name="castle-1" unicode="&#58924;" d="M914.6544449999999 330.637335666667l-78.841429-2.1316282072803006e-14 2.842170943040401e-14-77.902841-77.902842-2.1316282072803006e-14-2.842170943040401e-14 77.902841-77.902841-2.842170943040401e-14 2.842170943040401e-14-77.902841-78.84143-2.1316282072803006e-14-2.842170943040401e-14 77.902841-77.902842-2.1316282072803006e-14 2.842170943040401e-14-77.902841-77.902841-2.842170943040401e-14-7.105427357601002e-14 195.22639700000002-117.32355600000004 117.32355699999992-8.526512829121202e-14 234.647113-78.84143-2.1316282072803006e-14-155.805683-77.90284200000008 155.805683-77.90284099999994 2.1316282072803006e-14-78.84143-117.32355699999992-117.32355700000004L131.87167699999998-21.333333333333144 562.6837760000002-21.333333333333144 562.6837760000001 95.99022266666691q-1.0658141036401503e-14 32.850595999999996 22.526122999999973 56.315307000000004t55.37671899999998 22.52612300000002 55.376718-22.526122999999973 22.526123000000013-56.31530699999999L718.4894590000001-21.333333333332916 914.6544450000001-21.333333333333144l-1.1368683772161603e-13 351.970669z m-626.0384960000001 117.32355599999988q16.894592 5.329070518200751e-15 28.157653-14.078825999999992t11.263062000000012-32.850596l2.1316282072803006e-14-70.394134-78.84143-2.1316282072803006e-14-2.1316282072803006e-14 70.394134q-5.329070518200751e-15 19.710356999999995 11.263060999999988 32.850596t28.15765399999999 14.078826000000007z"  horiz-adv-x="1024" />

    
    <glyph glyph-name="castle1" unicode="&#58925;" d="M139.44423666666668 2.2737367544323206e-13l-1.7053025658242404e-13 529.2261680000001 47.85046700000001 1.7763568394002505e-14 2.1316282072803006e-14-66.033645 37.323364999999995 1.0658141036401503e-14-4.263256414560601e-14 167.47663599999998L424.6330216666667 630.6691589999999 424.6330216666667 463.19252299999994l54.549533 1.7763568394002505e-14-2.1316282072803006e-14 66.033645 47.85046700000001 1.7763568394002505e-14 2.1316282072803006e-14-66.033645 53.592524 2.1316282072803006e-14-4.263256414560601e-14 172.261683L780.6404986666666 635.454206 780.6404986666665 463.19252300000016l36.366355 7.105427357601002e-15-2.1316282072803006e-14 66.033645 47.85046700000001 1.7763568394002505e-14L864.8573206666666 424.9121500000002l-0.9570089999999993-424.91215-267.005608-5.684341886080802e-14-4.263256414560601e-14 153.121495c-1.7763568394002505e-14 53.592523-43.06542100000003 96.657944-95.70093400000005 96.65794399999997s-95.700935-43.06542100000004-95.70093499999997-96.65794400000004L405.49283466666674 2.2737367544323206e-13l-266.0485980000001-8.526512829121202e-14zM625.6049846666666 463.19252300000005L734.7040496666666 463.19252300000005l-1.7763568394002505e-14 52.635514c-1.0658141036401503e-14 29.66729-23.925234000000017 54.54953299999998-54.54953300000002 54.54953299999998-29.66729-1.0658141036401503e-14-54.54953299999999-24.88224300000002-54.549531999999985-54.54953300000002l1.7763568394002505e-14-52.635514z m-244.03738299999998 52.635513999999915c-1.0658141036401503e-14 29.66729-23.925234000000017 54.54953299999998-54.54953300000002 54.54953299999998-29.66729-1.0658141036401503e-14-54.54953299999999-24.88224300000002-54.54953299999998-54.54953300000002l1.7763568394002505e-14-52.635514L381.5676016666667 463.19252299999994l-1.7763568394002505e-14 52.635514zM572.0124606666666 649.8093459999999L789.2535826666666 649.809346l-109.09906600000002 108.14205599999995-108.14205599999997-108.14205600000004z m-353.136448-8.526512829121202e-14L436.1171336666667 649.8093459999999l-109.09906500000002 108.14205599999995-108.14205599999997-108.14205600000004z"  horiz-adv-x="1024" />

    
    <glyph glyph-name="cavalryman-2" unicode="&#58926;" d="M723.24183 610.3006536666667q-10.875817000000003 11.712417999999996-11.712418000000008 30.11764699999999t1.6732019999999856 34.300653999999994-5.019607000000008 32.627451q-7.529412000000006 18.405229-24.261438000000002 27.60784299999999t-38.483661 8.366012999999977q20.07843099999999 27.607843000000003 56.88888899999998 25.098039000000007t53.542484-30.117646999999984q11.712418000000003-15.895424999999996 13.385621000000011-39.320261999999985t1.6732030000000222-47.686274 7.52941100000001-40.993464q-12.549019999999995-10.875817000000003-28.444443999999994-11.712418000000007t-26.771242 11.712417999999985z m-149.75163399999994-137.202614q-6.692810000000009 87.84313699999998 33.46405199999997 143.05882299999996-29.281046000000007 18.40522899999999-41.83006500000001 39.320261999999985l32.627451 10.03921500000001q21.751634000000003 6.692810000000005 31.79085 10.03921600000001-14.222221999999999 5.856208999999996-45.17647099999999 7.529411999999983 7.529411999999992 21.751633999999996 27.60784299999999 35.97385600000001t42.66666699999999 10.03921600000001q20.915033 3.552713678800501e-15 34.300653000000004-16.732026999999995t10.875817000000007-37.64705799999999q-2.509803999999992-27.607842999999995-37.64705799999999-46.849674000000014 5.019608000000001-5.856208999999998 23.424836000000013-30.117646999999995t28.444445000000016-41.83006499999999 10.875817000000014-35.973856q52.70588200000001 36.810458000000025 317.908496 218.35294100000013l5.329070518200751e-15-15.058823999999998q1.7763568394002505e-15-10.875817-0.8366009999999946-15.058823l-342.1699349999999-235.92156900000015q-42.66666699999999 0.8366009999999875-126.326797 0.8366019999999494z m-455.1111109999998-359.73856300000017q9.202613999999997 9.202614000000002 52.705881999999995 38.48366100000001 26.77124199999999 18.405229000000006 256.83660199999997 176.52287500000003-16.732026000000022 61.07189499999997-53.54248400000003 107.08496799999998-12.549019999999995-9.202614000000002-17.568626999999985-38.48365999999999t-19.24183099999999-37.647059-29.281045 0.8366009999999875-15.895425000000007 25.098038999999993q-0.8366010000000017 3.346405-1.6732030000000115 37.647059t-7.529412000000022 51.03268q-11.712418000000005 29.281045999999993-7.529411000000017 81.150327-14.222222000000006 12.549019999999997-33.46405300000001 27.607842999999985 44.339868999999986 20.915033000000008 92.86274599999999 20.078431000000016t92.02614300000002-22.588234999999997q73.62091500000002-36.81045799999998 111.26797400000002-101.22875799999997 1.6732030000000044-19.24183 3.552713678800501e-14-73.620915t5.019608000000034-73.620915q2.5098040000000053-13.385621 9.202614000000004-24.261438t24.261437999999995-26.771242 20.078432-18.405229q-15.058823999999998-9.202614000000006-57.72549099999998-40.99346400000002 2.5098040000000097-29.281045999999996 5.019608000000023-62.74509799999999t4.183007000000025-75.294118 4.183006000000017-63.581699q-2.5098039999999973-9.202614-20.07843099999998-40.993464-21.751634 1.6732029999999938-63.581699-2.1316282072803006e-14 35.13725499999999 48.52287600000001 42.666665999999964 61.07189499999999-11.712418000000014 36.810458-33.464052000000045 106.24836599999999t-25.93464000000005 83.660131l-81.986929-1.4210854715202004e-14q0.8366010000000035-9.202614 5.329070518200751e-15-15.895425t5.329070518200751e-15-15.895425 2.5098040000000035-15.895423999999998q0.8366010000000006-2.509804 2.509804000000001-5.019607999999998t3.346406000000001-4.183007 5.856209-4.183005999999999 5.019607000000001-2.509803999999999 5.856210000000001-2.5098039999999973 5.856209-2.509803999999998l1.7763568394002505e-14-45.17647099999999q-40.993464-1.673203000000015-61.07189600000001 25.098039999999976-22.588235000000008 25.098038999999993-18.405228000000022 85.33333299999998l-161.46405299999995-112.10457500000007q-16.732025999999998 1.6732029999999938-41.83006499999999-0.8366020000000063zM340.0784310000001 561.7777776666667q-5.0196079999999625-90.352941-12.54901899999993-158.954248 9.20261399999999 23.424837000000004 18.405228999999974 71.111111t15.895423999999977 66.92810399999999q7.529411999999998-1.6732029999999978 22.588235999999995-5.856208999999986t21.751634000000003-6.692809999999997q-16.73202600000001 22.588234999999997-66.09150400000003 33.464051999999995zM637.9084970000002 274.8235296666668q-5.856209000000003 10.875816999999996-16.732026000000005 32.62745099999999t-18.405229000000006 39.32026099999999-15.058824000000007 34.300653999999994l46.013072 2.1316282072803006e-14q-2.6645352591003757e-15 9.202614-0.8366010000000088 41.83006499999999t0.8366009999999875 40.993464q5.0196080000000025-8.366012999999999 23.424837000000018-47.686274t28.44444400000002-59.39869299999999q-6.69281-0.836601000000003-44.33986899999999-0.8366010000000053-1.6732029999999973-9.202614 7.105427357601002e-15-40.993465t-3.34640499999999-40.15686199999999zM821.1241830000002 438.7973856666668q30.117646999999995 14.22222200000001 66.09150299999999 12.549020000000016t63.5817-20.91503299999998q25.098039-16.73202599999999 39.320261000000016-46.01307199999999t15.895425000000017-61.908497Q1012.7058820000001 233.83006566666688 1041.1503269999998 191.16339866666715q-67.76470600000002 6.692809999999984-94.53594800000002 43.50326799999998-17.568627000000003 20.915032999999994-20.078431000000016 71.111111t-17.56862800000002 71.111111q-10.875817000000001 23.424837-32.627451000000015 36.81045799999998t-55.215686 25.098038999999986zM591.0588240000002 207.89542466666694l90.35294099999997 60.23529400000002q46.849673 31.790850000000006 51.86928099999999 81.986928 0.8366009999999982 9.202614 0.8366009999999875 42.66666699999999t-7.105427357601002e-15 42.66666699999999q16.732025999999998 3.552713678800501e-15 30.954248 0.8366010000000088t30.954248999999997-2.50980399999999 29.281046000000003-10.039215999999985q39.320260999999995-15.058823999999987 61.071895-54.37908499999998t14.222222000000023-81.986928q-5.019607999999989-30.954248-28.44444399999998-61.07189499999999 10.039216000000005-18.405229 25.93464000000001-53.54248399999999t20.915033000000015-42.66666599999999q-9.202613999999988-27.607842999999995-45.17647099999995-149.75163399999997-45.17647099999999-1.7763568394002505e-14-66.92810399999999-0.8366020000000276 8.366012999999992 18.405229 25.098038999999975 61.071896t27.60784299999997 66.091503Q782.6405230000001 146.8235296666668 732.4444440000001 217.93464066666718q-7.529411999999998-4.183007000000002-38.48365999999999-20.07843200000001t-48.52287599999998-23.424836000000006q1.3322676295501878e-15-3.346405-0.8366009999999982-11.712418t-0.8366010000000017-11.712419 0.8366010000000035-10.039215000000002 2.509804000000001-11.712419q5.856209000000003-15.058823999999996 36.81045800000001-17.568626999999992 2.6645352591003757e-15-7.529411999999999-0.836602000000001-24.261438t1.0658141036401503e-14-25.934640999999996q-71.947712 4.183006999999982-87.843137 47.68627499999998-4.183007000000004 15.058823999999998-4.183006000000011 31.79085t-1.0658141036401503e-14 35.973856-1.0658141036401503e-14 30.954248z"  horiz-adv-x="1159" />

    
    <glyph glyph-name="cavalryman-1" unicode="&#58927;" d="M503.4394899999998 707.5329086666668q-17.936306-3.552713678800501e-15-30.980891 12.229298999999989t-12.229300000000011 30.980891999999994 12.229299999999988 30.165605 30.980890999999993 13.044586000000008 30.980892-13.04458599999999 13.044586000000008-30.165604999999992-13.04458599999999-30.980892-30.980891999999994-12.229299000000006zM814.878981 479.25265366666673q24.458599-14.675158999999988 52.993629999999996-12.229298999999976l23.643313 4.89172000000001 13.044585999999997 8.152866000000003 6.522292999999997 9.783439-4.076434000000002 6.522292999999998-24.458598000000002 6.522292999999992-7.33758 0.8152869999999974-4.891720000000001 2.445859999999999-20.382165-1.6305730000000054-11.414013 1.6305729999999974-8.968153000000001 2.4458599999999975-3.2611460000000005 0.8152859999999993-2.4458599999999997-2.445860000000001-7.337579999999996-22.012738000000006z m-6.522292999999997-10.598726000000001l-13.044585999999992-46.471337000000005-16.30573299999999-41.579618 4.440892098500626e-15-13.044585999999999 4.891720000000004-18.751593 1.6305730000000063-16.305732-1.6305729999999965-9.78344-26.904457999999984-47.28662400000002 1.3322676295501878e-15-3.261146 3.261146000000002-4.8917199999999985 10.598726000000003-14.675158999999999 31.79617900000001-48.91719799999998 5.707006000000002-7.337578999999996 4.891720000000002-4.891719999999999 8.152866-7.337579999999996 4.891720000000002-7.337578999999998 3.2611460000000045-13.859872999999997 8.152866000000008-35.872611 4.076433000000004-17.936306 11.41401300000001-33.42675199999999 1.6305730000000027-14.675159 4.440892098500626e-15-12.229298999999997 0.8152870000000032-8.968153 3.261147000000003-8.968153 4.891719000000004-5.707006 4.89172000000001-27.719746 0.8152870000000028-6.522292999999999-5.707007-2.4458600000000024-10.598726 3.261146999999997-13.859872000000003 5.707005999999998-12.229300000000004 10.598725999999996-6.522293000000005 9.783439999999999 0.8152869999999979 8.968153 2.445859999999999 11.414013 4.076432999999999 3.261146000000001 1.6305729999999974 7.337580000000001-3.261146000000002 6.522292999999999-3.2611470000000007 3.2611459999999988-2.445860000000002 8.968152999999997-2.4458600000000006 14.675159-4.440892098500626e-15 13.859873-4.076433000000003 20.382165-8.152866000000005 21.197452999999992-6.522293000000005 14.675158999999999-8.152866000000003 10.598725999999997-8.968153000000003 8.968152999999997-15.490446000000002 12.229298999999992-11.414013 9.783439999999997-35.87261100000001 19.566878999999986-28.535032000000008 22.828024999999993-8.152866000000003 5.707006999999997-1.7763568394002505e-15 4.891719-13.044585999999999-4.891719000000004-3.2611469999999887-33.426752-4.076432999999989-25.273885-4.076432999999993-22.012739000000003-0.8152869999999979-8.968153q-1.6305729999999947-13.044586000000002-3.2611459999999948-18.751592l-1.6305729999999912-17.936306-3.261146999999997-10.598726-4.891719999999998-7.337580000000002-11.414011999999998-9.783439000000005-24.458598999999992-21.197453000000007-17.936305999999995-18.751592000000006-10.598725999999996-10.598726000000001-8.968152999999997-9.783440000000004-6.522292999999999-4.0764330000000015-11.414012-7.337579000000004-10.598726999999997-4.891720000000004-11.414012-4.076433000000004-19.566879-2.445860000000007-8.968153-1.7763568394002505e-15-3.2611470000000007 3.2611459999999988 1.6305739999999975 7.337580000000001 8.152865999999992 17.936306000000002 11.414012999999995 12.229299000000001 8.968151999999998 6.522293000000003 4.89172 1.6305730000000016 8.152866000000001-4.076432999999998 3.2611470000000007-3.2611459999999988 6.522293-0.8152869999999974 4.8917199999999985 4.0764330000000015 0.8152859999999973 8.152867 2.445859999999998 4.891719 7.337579999999996 8.152867 17.121018999999993 11.414012000000007 16.305731999999992 12.22930000000001 9.783439999999997 8.152866000000003 6.522292999999997 10.598726000000001 3.2611459999999948 16.305732-0.8152860000000111 38.318472-3.2611470000000082 26.904457999999995-3.261146000000007 37.503185-25.273885999999997 0.8152869999999908-24.458598000000006 3.261145999999991-49.732484 14.675158999999983-40.764331999999996 12.229299999999986-31.79617800000001 10.598725999999992-29.350318000000005 13.859872999999993-0.8152869999999908-30.980892000000004-6.522292999999991-28.535032-5.707005999999998-14.675159000000004-6.522292999999996-17.936306000000002-10.598726999999993-24.458599000000007-4.076432999999996-10.598726 3.261147000000003-15.490446000000002 8.968153000000003-13.044585999999995 17.121019-21.197451999999995 15.490446000000006-17.121018999999993 8.968153000000003-7.337579999999996 13.859872000000003-13.044585999999995 11.414013000000002-9.783438999999994 5.7070060000000025-7.337579999999996 1.6305730000000045-12.229298999999996 2.6645352591003757e-15-7.337580000000001 3.261147000000002-8.152865999999998 4.891720000000005-9.783438999999998 2.4458600000000024-4.8917199999999985 6.522293000000012-27.719744999999996 4.440892098500626e-16-3.2611469999999994-6.5222929999999995-2.4458600000000024-8.968153000000001 3.2611469999999976-13.044586000000004 6.522292999999997-17.936306000000005 11.414011999999996-0.8152870000000014 4.891719999999999-0.8152860000000026 6.5222929999999995 1.6305729999999974 7.337580000000001 4.076432999999998 5.7070060000000025 3.2611469999999976 4.076433000000001-1.630574000000001 2.4458599999999993-5.707006-2.220446049250313e-15-4.891720000000002 4.076432999999998-4.0764330000000015 6.522292999999999-7.337579000000004 12.2293-12.229300000000006 13.859871999999992-17.121019000000004 20.382165999999994-48.101911000000015 39.13375799999998-13.859872000000003 13.044585999999995-0.8152870000000014 4.891719999999999-2.220446049250313e-15 5.707006 2.4458599999999953 13.044586 7.337578999999993 18.751592 2.445859999999996 17.936306-5.329070518200751e-15 18.751592-2.445860000000002 8.968152999999997-13.859871999999992-12.229299000000005-21.19745199999999-13.044586000000006-24.458598999999992-22.012739000000007-13.859872999999993-13.044586000000006-11.414011999999998-8.968153000000004-13.859872999999993-13.044586000000006-8.152865999999996-9.783439000000003-7.3375799999999956-13.044586000000004-13.044585999999995-22.828026-14.675158999999994-29.350318-11.414012999999997-28.535032-4.891719999999995-13.044586-5.707005999999999-4.891720000000003-5.707005999999999-4.0764330000000015-7.33758-2.445860000000003-7.337579999999999-3.2611460000000028-5.707005999999998-5.707007000000002-4.076432999999998-7.337579-4.891719999999998-7.337580000000002-35.872610999999985-17.12101900000001-4.0764330000000015 4.8917199999999985-1.7763568394002505e-15 8.968153 3.2611459999999957 15.490445000000003 4.076432999999996 11.414013 4.076432999999998 8.152866000000001 7.337579999999997 7.337580000000004 7.337579999999999 1.6305730000000027 8.152866-2.445859999999998 3.2611460000000005-2.4458589999999987 4.076433-1.630573999999999 4.076434 2.4458600000000015 1.6305729999999983 4.891720000000001-1.6305730000000027 7.337579999999999 0.8152859999999986 7.337579 4.8917199999999985 6.522293000000001 9.783438999999998 9.783440000000004 8.152866999999997 13.859872 12.229298999999992 24.458599000000007 12.229298999999985 32.611465 8.968152999999988 37.503185 2.4458599999999997 14.675159 2.4458599999999997 3.2611460000000014 15.490445999999997 6.522293000000006 15.490445999999997 7.3375800000000035 8.968152999999994 6.522293000000002 5.707005999999996 7.337580000000003 7.337579999999997 11.414012000000003 1.6305729999999974 6.5222929999999995-5.329070518200751e-15 17.121018999999997-4.89172000000001 31.796178999999988-2.4458600000000104 33.426750999999996-1.6305730000000107 31.796178999999995-5.329070518200751e-15 15.490446000000002 3.261146 14.675159 8.152866999999995 22.828025000000007 7.337578999999998 11.414013000000002-13.044585999999999-4.076433000000003-14.675158999999995-7.337580000000003-9.783438999999994-12.229299000000003-6.522292999999995-22.012739000000003-0.8152869999999943-20.382165 4.07643300000001-31.79617899999999-0.8152869999999925-26.089171999999998-0.8152859999999933-21.197452-3.261146999999993-15.490446-8.968153-3.261146000000003-13.044585999999995-19.566879000000004-6.522292999999995-15.490446-1.6305729999999947-19.566879-1.6305729999999965-17.121019-13.859872999999991-16.305733-13.859871999999996-13.859872000000003-8.968152999999997-22.828026-1.6305729999999938-15.490446000000004-13.044586000000002 16.305732999999996-5.707007000000001 4.076432999999997-6.522293000000002 3.2611459999999983-7.337579000000005 13.859872999999999-1.6305740000000064 20.382166 5.707006999999991 20.382165 9.783438999999996 22.828026 9.783439999999993 17.936305 7.337578999999994 15.490446000000004 2.4458599999999953 12.2293-0.8152860000000026 8.152866 2.4458599999999944 21.197452 1.6305729999999912 28.535032 4.891719999999978 48.917197 7.337578999999991 26.904458999999996 13.859872999999993 22.012739000000007 13.044585999999997 11.414013000000004 22.828025 12.229299000000006 18.751593 6.522293000000005 23.643312 8.881784197001252e-15 13.044586-2.4458599999999953 12.229298999999997 4.440892098500626e-15 17.121019 4.076433000000005 18.75159199999999 9.78344000000001 32.61146499999999 13.044586000000006 22.828025999999998 5.707006000000005 14.675158999999999 5.707006000000003q1.630573 6.661338147750939e-16 3.261147 0.8152870000000003t5.707005999999999 4.0764330000000015 4.076432999999996 11.414013q-0.8152870000000405 135.33758 57.07006399999992 212.789809 15.490446000000006-13.044585999999995 38.31847100000002-15.49044599999999l17.93630600000003-101.095541 91.31210200000002-81.52866299999997-23.643311999999998-16.305732000000006-57.88535100000001 31.796177999999983q-4.076432999999997-14.675159000000003 8.96815300000001-30.165605t31.796179000000002-21.197451999999988 30.980891 0.8152860000000111l-8.152866000000003 12.229299999999997 21.197451999999995 14.675159000000008 23.643312-16.305732999999993 41.579617999999996 22.82802600000001 119.03184699999996 114.140127 5.707006999999997 8.152866000000003 5.707005999999996 7.337580000000003 8.152865999999998 7.337580000000003 8.968152999999996 12.229299 6.522292999999998 7.337580000000003 5.707007 2.6645352591003757e-15 1.6305730000000016-4.89172-0.815286999999997-10.598726-2.445859999999998-10.598726 9.783439999999997 4.891719000000004 7.337578999999998 7.337580000000003 7.337579999999997 6.522293000000003 3.2611470000000002-1.6305729999999987 2.6645352591003757e-15-9.78344-4.891719999999997-8.152866-10.598725999999997-14.675159000000004-1.6305739999999993-2.445860000000001 15.490446000000006-9.783438999999996 19.566879000000004-13.859872999999993 8.152867000000002-4.8917199999999985 4.076433000000001-4.076432999999998 0.8152860000000026-7.337579999999999 13.044586000000006-13.044585999999992 30.165605000000017-27.719744999999985 8.152867000000002-4.076432999999998 7.337579-4.076432999999998 3.261147000000001-7.337579999999998 4.440892098500626e-16-7.337579 1.6305730000000027-7.337579999999999 1.3322676295501878e-15-4.89172-0.8152869999999979-8.152866-3.2611459999999988-4.891720000000001-3.2611469999999994-0.8152860000000004-1.6305729999999983-4.891720000000001-12.229298999999997-4.076433000000003-7.337579999999998-4.0764330000000015-5.707006-0.8152870000000023-3.2611469999999994-0.8152860000000004-4.891719 1.6305729999999978-8.152866999999995-13.044586000000002-21.197451999999995-11.414013000000004q-4.891719999999999-0.8152870000000014-13.859872999999997-3.2611460000000045t-13.044585999999999-4.076434000000005q-30.165605-8.152866000000008-52.993629999999996 17.93630599999998z m56.254777000000004-8.152865999999978q-20.382166-0.815287000000005-51.363057 11.41401299999998 15.490446000000002-12.229298999999992 23.64331200000001-13.85987299999999t27.719744999999996 2.445860000000007z"  horiz-adv-x="1058" />

    
    <glyph glyph-name="harbor" unicode="&#58955;" d="M274.7904156666666 791.9927209999998c90.380346 2.842170943040401e-14 163.05732500000002-72.67697899999996 163.05732500000005-163.0573249999999 5.329070518200751e-15-20.498635-4.6587809999999905-40.06551399999999-12.112829999999981-57.76888100000001L810.5501966666666 186.35122800000022l-8.526512829121202e-14 186.351229c-2.1316282072803006e-14 69.881711-46.587807000000055 93.175614-46.587807000000055 93.175614l-46.587806999999984-46.58780700000002-8.526512829121202e-14 186.351228c-2.1316282072803006e-14 46.587807 23.29390399999999 23.29390400000001 46.587807 2.1316282072803006e-14C903.7258116666665 465.8780710000001 903.7258116666665 466.8098269999999 903.7258116666666 372.7024570000002L903.7258116666665 46.587807000000566c7.105427357601002e-15-23.293904000000005-23.293903999999987-46.587807000000005-46.587806999999984-46.58780700000002l-326.11465-1.1368683772161603e-13C436.9159846666669 2.2737367544323206e-13 360.511980666667 77.33576000000016 298.08431866666683 139.7634210000001c-23.29390400000001 23.29390399999999-46.58780700000001 45.656050999999984-2.1316282072803006e-14 46.587807L484.4355476666667 186.35122800000033l-46.587806999999984-46.58780700000002s23.293904000000015-46.587806999999984 93.17561400000002-46.58780699999996L717.3745826666666 93.17561400000034l-384.815286 384.81528699999996c-17.703367-7.45404900000001-37.270246-12.112830000000006-57.76888099999998-12.11283000000002-90.380346-2.842170943040401e-14-163.05732500000002 72.67697899999996-163.05732500000005 163.0573249999999s72.67697899999996 163.05732500000002 163.0573249999999 163.05732500000005z m4.263256414560601e-14-93.175615c-38.202002-7.105427357601002e-15-69.881711-31.679709000000017-69.88171099999997-69.88171000000001s31.679709000000017-69.881711 69.88171100000002-69.88171099999998 69.881711 31.679709000000017 69.88171099999998 69.88171100000002-31.679709000000017 69.881711-69.88171100000004 69.88170999999997z"  horiz-adv-x="1024" />

    
    <glyph glyph-name="police" unicode="&#58975;" d="M625.5753263333329 798.5954926666667c22.775801 8.881784197001252e-15 45.551601-22.77580099999999 45.55160100000002-45.55160199999998l2.1316282072803006e-14-45.551601-318.86121-1.1368683772161603e-13-2.1316282072803006e-14 45.551601c-8.881784197001252e-15 22.775801 22.77580099999999 45.551601 45.55160199999999 45.55160200000001L625.5753263333329 798.5954926666667z m45.551601000000026-136.654805l1.0658141036401503e-14-22.7758c2.1316282072803006e-14-88.370107-71.06049799999991-159.430605-159.43060499999999-159.43060500000004s-159.430605 71.06049799999991-159.43060500000004 159.43060499999999l-1.0658141036401503e-14 22.7758L671.1269273333329 661.9406876666667z m45.55160200000009-227.75800700000002C785.005931333333 434.1826806666667 807.781732333333 320.303677666667 807.7817323333331 251.976275666667l5.684341886080802e-14-273.309609-122.078292-4.263256414560601e-14-310.6619220000002 455.5160139999999L716.678529333333 434.18268066666684z m-409.9644129999999-1.4210854715202004e-13L617.3760383333332-21.333333333332916l-401.765125-1.4210854715202004e-13-5.684341886080802e-14 273.309609c-1.4210854715202004e-14 68.327402 22.775800999999916 182.206406 91.10320299999992 182.20640500000002z"  horiz-adv-x="1024" />

    
    <glyph glyph-name="shield" unicode="&#58988;" d="M295.8041700000001 343.51888766666684l-1.1368683772161603e-13 331.430644L527.8984589999997 674.9495316666666 527.8984589999998 86.35841666666693q-62.20126900000002 32.49319999999999-110.47688100000003 70.55666299999999-121.61740700000004 95.62284699999996-121.61740800000007 186.60380799999993z m-99.33635500000014 398.2737989999999L196.46781500000012 343.5188876666667q1.4210854715202004e-14-44.562103 16.710789000000027-88.195829t43.63372600000004-77.98368099999998 61.27289200000003-65.91477799999997 64.98640100000001-52.91749799999998 63.12964600000001-39.92021699999997 46.418858-25.99456099999998 21.352674-10.212147999999992q6.49864-3.7135089999999975 13.925658000000002-3.7135089999999957t12.997279999999996 3.7135090000000037q8.355393999999999 3.713509000000002 22.281051999999992 10.212148000000006t46.41885699999999 25.99456100000001 63.12964699999999 39.92021700000003 64.9864 52.91749800000003 61.27289199999997 65.91477800000003 42.70534999999996 77.983681 17.639164999999963 88.195829l-1.7053025658242404e-13 398.273799q-4.440892098500626e-15 12.99728-10.212148000000006 23.209428999999993t-23.209429 10.212147999999988l-596.94651-1.7053025658242404e-13q-12.99728-4.440892098500626e-15-23.209427999999996-10.212148000000006t-9.283771999999988-23.209429z"  horiz-adv-x="1024" />

    
    <glyph glyph-name="ship" unicode="&#58989;" d="M204.40136751601253 209.99427828832938l27.701502047741887-4.817652830224846 7.665206375436036e-16-2.4088257246920164q13.248544937908143 8.430892107683293 27.70150204774188 24.088262770283464t34.92798060265875 59.016241992101406 38.54121988011718 101.17070253051789 33.72356704989229 161.39135807538568 26.4970884949754 230.04290572793678l-50.58535126525893 13.248544937908132 2.4088271055328305 30.1103277724339 420.3401780229899-109.60159463820102 4.817652830224822 114.41924746842598 1.2044135527664164 15.657370662600163 24.088261389442625 9.635304279608896-1.2044121719255907-24.088262770283457q36.1323941554252-69.85596120531753 95.14863614752663-148.14281313747748l1.2044135527664195 3.832603187718018e-16 1.2044121719255971-1.2044135527664195 257.7444077756786-66.242721927859 12.044131385141744-33.723567049892345-69.85596120531753 19.27060994005857q50.585351265258964-78.2868533130008 51.78976481802542-161.39135807538568 34.927980602658764-24.088262770283436 72.26478693000954-48.17652415972604 4.817652830224853 10.839717832375309 13.248544937908143 13.248543557067327t12.044131385141728-2.4088257246920137 2.408825724692023-18.066196387292177q-3.613239277458433-10.839717832375309-7.226478554916856-42.15445915757564t-2.4088271055328208-56.6074176482502l-1.204412171925586-25.292674942209054q-2.4088257246920146-4.817652830224856-7.226478554916867-13.248544937908148t-18.06619776813299-33.72356704989235-28.905914219667466-45.76769843503409-37.33680632735077-45.767698435034085-46.97211198780049-40.95004560480924Q743.978445837654-156.14731057278482 419.99131613411583-50.15895521204186q-134.89426958041022 43.35887271034203-224.02083934494547 126.4633774727268l-4.817652830224857 3.613239277458434zM793.3593835501464 783.2949236598622l-2.4088257246920155-77.0824397602344 63.83389482232624-18.06619638729217q-34.92798060265877 49.38093771249248-61.425069097634264 95.14863614752655zM1082.4185326510258 232.87812750584624l99.96628897775142 28.90591560050837q18.06619638729217 63.83389482232624 26.497088494975433 104.7839404271355-33.72356704989235 20.47502349282501-66.24272192785912 43.358872710342034-8.430892107683258-86.71774403984327-80.69567903769278-157.77811879792722l21.67943704559144-1.204412171925592z m-207.1590565104197-2.408825724692109l-103.57952825520985 4.817652830224831-1.2044135527664104-25.29267632304987q56.607416267409384 10.839717832375332 104.78394180797626 20.475023492825045z m-531.1461862139574-105.9883553607429l2.4088257246920013 46.97211198780049q173.43548946052735-2.4088257246919427 396.25191663354724 33.723567049892445l-2.452866040139532e-15 31.314741325200327-401.0695680829312 19.270609940058506 2.4088257246920137 32.51915487796674 68.65154765255107-3.6132392774584057q10.839717832375305 12.044131385141728 20.47502349282501 25.292674942209054t25.292674942209032 39.74563343288363 21.679437045591428 50.58535126525893 13.248543557067308 63.83389482232624-1.2044135527664497 71.06037475808394q-20.475023492825052 119.23689891781004-57.81182843933506 233.65614500539522l-18.066197768133 4.817651449384029q-26.49708849497534-369.75482813857184-112.01042036289304-520.3064670007415-33.72356704989233-61.42506909763425-73.46919910193512-77.08243976023441l1.4717196240837192e-14-54.19859054271736z m-474.5387685657071-321.57830259800505z m7.226478554916873 2.452866040139532e-15q-2.452866040139532e-15 7.226478554916873-7.226478554916874 7.226478554916867t-7.226479935757693-7.226478554916874 7.226479935757698-7.226478554916868 7.226478554916867 7.226478554916874zM1566.5926068771798 992.8628058949741z m7.226478554916873 2.452866040139532e-15q-2.452866040139532e-15 7.226478554916873-7.226478554916874 7.226479935757693t-7.226478554916868-7.226479935757698 7.226478554916874-7.226478554916867 7.226478554916867 7.226478554916874z"  horiz-adv-x="1421" />

    
    <glyph glyph-name="ship-1" unicode="&#58990;" d="M636.3908511668147 771.7806589724445Q782.6652771365927 406.67047647762996 892.0831547922965 134.8534332681487q-175.06860449185191 101.35550786370364-323.64656503466665 39.160081673481386 10.365904365037016 96.74843993125928 32.2494803816296 296.00415501274074t35.70478102755546 301.76298901807405zM890.9313875057778 104.90748745955614q-112.87317951525927 13.821206224592556-367.4137158542223 47.222452679111036t-391.6008264438518 50.677753325036896q19.580041443555558-49.52598725214814 65.65072683614818-102.50727515022218t102.50727515022226-90.98960349866663L579.9542614091852 9.310814814815444q187.73804342992594 5.1740143034193253e-14 285.63824943407405 2.3035345730371426 4.6070691460740685 13.821206224592592 12.66943893807406 46.070685392592594t12.669437724444428 47.22245267911112z m-290.24531736651875 681.8461450239998q-76.01663120118515-107.11434429629632-236.1122633955555-304.06652480474077t-202.71101694103692-253.3887702660741q87.53430285274074 28.794178522074102 192.345112576 18.428274157037098t171.61330384592594-58.74012311703699q21.883576016592542 164.70270012681488 74.86486391466647 597.7671440308147z"  horiz-adv-x="1024" />

    
    <glyph glyph-name="soldier" unicode="&#58999;" d="M617.1367702473957 611.7215220377602c-0.7666101562500014 6.13287861328125-0.7666101562500034 13.03236826171875-3.066439746093753 19.165246875l-262.1805793945312-7.494005416219807e-14c-4.599659179687494-13.03236826171875-6.899488769531242-27.597955957031246-6.899488769531235-42.163543652343755 1.8735013540549517e-14-76.66098837890624 61.328790527343784-137.98977890624997 137.9897780273438-137.9897780273437 61.328790527343756 1.2490009027033011e-14 112.69165253906249 39.86371406250003 131.09029013671875 95.82623437500001-15.332197851562503 19.931857031249994-13.032368261718766 46.76320283203124 3.0664397460937347 65.16184042968749zM707.5967361653646 2.266666666666765l-66.69505986328126-1.8735013540549517e-14 2.2998295898437187 74.36115878906251 64.39523027343752-74.36115878906249z m-453.8330499023437 304.34412304687487c-9.965928515624997-19.931857031250004-26.06473564453118-177.85349208984377-38.330493749999924-304.344123046875L310.4928176106774 2.266666666666765l19.93185703124993 203.15161845703128 6.132878613281322-203.1516184570313L629.4025274739585 2.266666666666765l6.132879492187432 203.1516184570313s1.5332194335937404 26.831345800781254 6.132878613281231 51.36286201171876l236.88245390625 3.066439746093791c16.098807128906248 6.2450045135165055e-15 29.89778554687499 9.199318359375008 36.79727431640623 22.99829589843751 6.899488769531247 14.565587695312503 4.599659179687491 30.664394824218746-5.366269335937516 42.930153808593744l-14.565587695312507 17.632027441406244c-0.7666101562500013 3.0664397460937503-2.2998295898437515 5.366269335937501-4.599659179687501 8.432708203124996l-203.91822861328131 251.4480407226562c-13.798977539062502 17.632027441406247-39.86371406250001 19.931857031249994-56.729131347656235 6.132879492187485-17.632027441406244-14.565587695312507-20.698467187499993-39.8637140625-6.132878613281225-57.49574150390625L762.0260370442709 380.97194762369827l-148.72231669921877 19.931857031249944c-2.439454888092385e-16 0.7666101562499998-0.7666101562499998-2.439454888092385e-16-0.7666101562499998-2.439454888092385e-16-29.897785546874996 11.499147949218736-68.228279296875 17.632027441406233-116.5247015625 17.63202744140622l-26.831345800781254-7.806255641895632e-15c-128.79045966796872-3.7470027081099033e-14-180.91993183593752-42.16354365234382-215.41737656249995-111.92504238281258z m82.02725771484376 73.59454775390624c15.332197851562494 8.432709082031257 33.73083457031249 14.565587695312516 55.195911035156236 19.165247753906268L612.5371101888022 3.7998861002606645l-66.69505898437501-1.8735013540549517e-14-210.0511072265626 376.4054513671875z m39.09710390624984 388.67121035156254L591.0720337239582 768.8765478190105l22.998296777343793-116.52470244140622-262.1805793945312-7.494005416219807e-14 22.998296777343707 116.52470244140626z m-160.22146552734367-317.37649130859376l4.599659179687498 4.599659179687501-65.16183955078125 65.92844970703125-5.366269335937497-4.599659179687501-29.131175390625017 29.897785546874985 15.33219785156249 16.098808007812504 29.89778466796876-29.89778554687499-1.5332194335937492-2.2998295898437506 65.16183955078125-65.92844970703125 14.565587695312495 13.798977539062504 21.465077343749996 21.465076464843758 10.73253779296875-9.965928515624997-22.231686621093743-22.231686621093758 62.86201083984375-62.862009960937506 9.965928515624999 3.833049902343753 6.132878613281252-5.366269335937499c-17.632027441406244-9.199318359375003-33.730834570312496-20.69846718750001-47.52981210937497-34.497444726562506l-69.76149960937502 82.02725683593746z"  horiz-adv-x="1043" />

    
    <glyph glyph-name="wall" unicode="&#59007;" d="M893.8887901234568 369.7600790123462l-95.79583209876543-2.7594742951569734e-14L798.0929580246916 232.5390222222229l95.79583209876543 2.7594742951569734e-14-5.518948590313947e-14 137.22105679012344z m5.518948590313947e-14-186.4135111111111l-190.2971259259259-5.518948590313947e-14L703.5916641975308 44.830972839506785 893.8887901234573 44.83097283950701l-3.679299060209298e-14 138.51559506172836z m-557.9459950617284-1.8396495301046486e-13l-187.70804938271604-5.518948590313947e-14L148.23474567901263 44.83097283950656 335.9427950617284 44.830972839506785l-3.679299060209298e-14 138.51559506172836z m322.3400296296296 1.1037897180627894e-13l-279.6202666666667-9.198247650523243e-14L378.6625580246913 44.830972839506785 658.2828246913581 44.830972839506785l-3.679299060209298e-14 138.51559506172836zM893.8887901234566 742.5871012345679l-144.98828641975308-5.518948590313947e-14L748.9005037037037 602.7769679012345 893.8887901234568 602.7769679012346l-4.5991238252616214e-14 139.81013333333334z m-138.51559506172836-47.897916049382715l-144.98828641975308-5.518948590313947e-14 2.7594742951569734e-14-91.91221728395061L755.3731950617284 602.7769679012345l-2.7594742951569734e-14 91.91221728395061z m-141.10467160493826 47.89791604938266l-190.2971259259259-5.518948590313947e-14L423.97139753086424 602.7769679012345 614.2685234567901 602.7769679012345l-4.5991238252616214e-14 139.81013333333334z m-183.8244345679012-47.89791604938276l-144.98828641975308-5.518948590313947e-14 2.7594742951569734e-14-91.91221728395061L430.4440888888889 602.7769679012345l-2.7594742951569734e-14 91.91221728395061z m-141.10467160493826 47.89791604938266l-143.69374814814813-5.518948590313947e-14L145.64566913580245 602.7769679012343 289.33941728395064 602.7769679012345l-4.5991238252616214e-14 139.81013333333334zM752.7841185185185 369.7600790123462l-235.60596543209877-1.1037897180627894e-13L517.1781530864199 232.5390222222229 752.7841185185185 232.5390222222229l-5.518948590313947e-14 137.22105679012344z m-277.0311901234567-7.358598120418596e-14l-192.8862024691358-7.358598120418596e-14L282.86672592592595 232.5390222222229 475.7529283950619 232.5390222222229l-5.518948590313947e-14 137.22105679012344z m-233.0168888888889-5.518948590313947e-14l-94.50129382716048-2.7594742951569734e-14L148.2347456790124 232.5390222222229l94.50129382716048 2.7594742951569734e-14-5.518948590313947e-14 137.22105679012344zM893.8887901234568 558.7626666666669l-190.2971259259259-5.518948590313947e-14L703.591664197531 416.3634567901239 893.8887901234568 416.3634567901242l-4.5991238252616214e-14 142.39920987654318z m-557.9459950617284-1.8396495301046486e-13l-187.70804938271604-5.518948590313947e-14L148.23474567901235 416.3634567901239 335.9427950617284 416.3634567901239l-4.5991238252616214e-14 142.39920987654318z m322.3400296296296 1.1037897180627894e-13l-279.6202666666667-9.198247650523243e-14L378.6625580246915 416.3634567901239 658.2828246913581 416.3634567901242l-4.5991238252616214e-14 142.39920987654318z"  horiz-adv-x="1024" />

    
    <glyph glyph-name="war" unicode="&#59009;" d="M145.76382800000005 61.88648300000011q23.10392699999999 9.076543000000006 49.50841399999999 41.257012000000024t40.43187099999999 40.43187200000002q44.55757299999999 29.705049000000017 2.475420999999983 67.66149900000002-17.327945000000003 14.852523999999999-23.92906700000001 26.404487999999997-5.775982000000003 9.901682999999998-9.076542000000007 16.502805t-1.6502810000000059 15.677664 9.901682999999995 14.852524q14.027383999999998 9.076543000000004 27.229627999999998 4.12570100000001t18.978225000000005-23.103925999999994q19.803366000000022-62.710658 75.087762-12.377103999999974 18.153084999999994 17.327945000000007 150.17552299999994 151.82580400000003-240.11580900000007 235.16496799999993-303.65160700000007 295.4002049999999-8.251402000000004 8.251401999999999-15.677665000000005 21.453646t-9.901683000000007 26.404487999999997-5.775981000000007 25.579347-2.475421000000006 19.803366l-0.8251400000000015 6.601122q8.251402-0.8251399999999962 20.628506-2.4754209999999954t39.60673100000001-10.726822999999989 40.43187200000001-23.10392699999999Q332.24552100000005 675.7908199999999 541.0060010000001 462.07949799999994 753.0670419999999 679.9165210000001 833.9307859999999 764.080825q14.02738399999999 14.027384000000005 40.431870999999994 23.103927000000013t41.257011999999996 11.55196300000001 18.978226 1.6502810000000068q2.220446049250313e-15-7.4262619999999995-1.6502809999999926-20.628506t-9.901682999999991-38.781591-22.278785999999993-40.431872000000006q-57.759816999999984-54.45925600000002-303.6516079999999-295.4002050000001Q728.3128350000001 271.4721040000004 747.2910609999999 253.31901800000026q54.45925600000001-50.33355399999997 75.087761 12.377104000000031 5.775981999999995 18.153085 18.97822599999999 23.10392600000001t26.404487-4.125700999999992q9.076543-4.950840999999996 10.726823000000007-14.852523999999999t-1.650279999999995-15.677664000000004-9.901682999999995-16.502805000000002q-5.775981999999997-11.551963000000004-23.10392699999999-26.40448800000001-42.082151999999994-37.956451000000015 2.4754210000000256-67.661499 14.027384000000003-9.076542999999994 40.43187200000001-40.43187199999999t48.683274000000004-41.25701199999999q10.726823000000003-4.125700999999998 11.551963000000004-14.027383999999996t-4.950840999999994-18.978225-14.027383999999994-15.677665000000003l-4.125701999999999-3.3005610000000005q-4.125700999999999-2.4754210000000003-5.775981-3.3005610000000023t-4.950842-3.3005610000000005-5.775980999999998-2.4754200000000024-4.950842-0.8251410000000017-5.775981-2.6645352591003757e-15-5.775982000000001 2.475420999999998-4.9508410000000005 5.775981999999997-4.950842000000001 8.251401999999999q-10.726823000000005 23.10392699999999-43.73243200000001 51.983834999999985t-42.90729300000002 42.08215199999998q-18.97822500000001 26.404487999999997-47.032993 1.6502809999999855-0.8251399999999998-0.8251400000000003-14.027383999999993-13.202244000000004t-21.453646999999993-18.15308500000001q-37.13131099999998-25.579347000000006-51.983835-2.1316282072803006e-14-7.426262000000003 14.027383999999994-0.8251400000000082 26.404487000000003t24.754206999999994 18.153085000000004q16.502804999999995 6.601122000000007 24.754206999999994 14.027385000000006t7.426262999999995 18.153085000000004-5.775982000000003 18.978224999999995-15.677665000000005 21.453646q-3.300561000000002 5.775981999999998-6.601121000000003 9.076542999999997-18.978225000000005 17.327944999999993-146.87496300000006 141.92412099999996Q413.1092650000002 223.61397000000034 394.1310390000001 207.11116500000026q-3.3005609999999987-3.300561000000001-7.4262619999999995-9.076543-9.901682999999997-11.551963000000004-14.852523999999992-21.453646000000006t-5.775981999999993-18.978225 7.426262000000006-18.153084999999997 24.754207-13.202244q18.978225000000002-6.601121999999996 24.75420700000001-18.978225999999992t-1.6502799999999915-26.404487q-14.027383999999994-25.579347000000006-51.158694999999994-2.1316282072803006e-14-6.601122 4.125700999999998-12.377103 9.076541999999995t-12.377104000000001 12.377103999999996-10.726823000000003 9.901682999999997q-27.22962800000001 24.754206999999994-47.032994-1.650281000000021-9.07654299999999-13.202244000000002-42.907291999999984-42.082152000000015t-43.73243199999999-51.158695000000016q-2.475420999999998-5.775982000000001-4.950841999999996-9.076542000000002t-4.950840999999998-5.775982000000001-5.775981999999999-2.4754210000000016-5.775981999999999-2.220446049250313e-15-4.9508410000000005 0.825140999999999-5.775982000000002 2.475419999999998-5.775981 3.3005609999999974-4.9508420000000015 4.1257009999999985-4.125701000000002 3.3005609999999983q-8.251402000000002 5.775981999999997-14.027384000000003 14.852524999999996t-4.950841000000006 18.978225 10.726822999999994 14.027384000000001z"  horiz-adv-x="1062" />

    
    <glyph glyph-name="airport" unicode="&#58987;" d="M1024 430.557867V315.733333l-443.733333 68.266667-21.7088-325.8368L750.933333-59.733333000000016v-68.266667l-238.933333 46.557867L273.066667-128v68.266667l192.375466 117.896533L443.733333 384 0 315.733333V430.557867L443.733333 588.8v204.8s0 102.4 68.266667 102.4 68.266667-102.4 68.266667-102.4v-192.375467l443.733333-170.666666z"  horiz-adv-x="1024" />

    
    <glyph glyph-name="bar" unicode="&#58993;" d="M512 827.733333c-136.533333 0-477.866667-17.066667-443.733333-51.2L477.866667 349.866667v-273.066667c0-68.266667-204.8-34.133333-204.8-136.533333h477.866666c0 102.4-204.8 68.266667-204.8 136.533333V349.866667l409.6 426.666666c34.133333 34.133333-307.2 51.2-443.733333 51.2z m0-68.266666c170.666667 0 324.266667-17.066667 324.266667-17.066667L785.066667 691.2h-546.133334l-51.2 51.2S341.333333 759.466667 512 759.466667z"  horiz-adv-x="1024" />

    
    <glyph glyph-name="bicycle-share" unicode="&#59000;" d="M682.666667 827.733333a68.266667 68.266667 0 1 1 0-136.533333 68.266667 68.266667 0 0 1 0 136.533333zM556.032 691.6096a34.133333 34.133333 0 0 1-23.7568-9.762133l-180.224-170.666667a34.133333 34.133333 0 0 1 2.8672-52.087467L477.866667 366.93333299999995v-187.733333c-0.682667-46.148267 68.949333-46.148267 68.266666 0v204.8a34.133333 34.133333 0 0 1-13.653333 27.306667l-52.360533 39.389866 124.1088 117.418667 51.131733-68.130133A34.133333 34.133333 0 0 1 682.666667 486.4h102.4c46.148267-0.682667 46.148267 68.949333 0 68.266667h-85.333334L648.533333 622.933333l-40.96 54.613334a34.133333 34.133333 0 0 1-26.2144 14.062933h-25.326933zM204.8 418.133333a204.8 204.8 0 1 1 0-409.6 204.8 204.8 0 0 1 0 409.6z m614.4 0a204.8 204.8 0 1 1 0-409.6 204.8 204.8 0 0 1 0 409.6zM204.8 349.866667a136.533333 136.533333 0 1 0 0-273.066667 136.533333 136.533333 0 0 0 0 273.066667z m614.4 0a136.533333 136.533333 0 1 0 0-273.066667 136.533333 136.533333 0 0 0 0 273.066667z"  horiz-adv-x="1024" />

    
    <glyph glyph-name="buddhism" unicode="&#59001;" d="M921.463467 418.2016h-36.386134a372.9408 372.9408 0 0 1-85.1968 205.482667l25.8048 25.873066a34.133333 34.133333 0 0 1-47.445333 49.083734l-0.8192-0.8192-25.8048-25.8048a373.009067 373.009067 0 0 1-205.550933 85.1968V793.6a34.133333 34.133333 0 0 1-68.266667 0v-36.386133a373.009067 373.009067 0 0 1-205.482667-85.1968L246.442667 698.026667a34.133333 34.133333 0 0 1-48.264534-48.264534l25.8048-25.736533A372.9408 372.9408 0 0 1 138.8544 418.133333H102.4a34.133333 34.133333 0 0 1 0-68.266666h36.386133a372.9408 372.9408 0 0 1 85.128534-205.482667l-25.8048-25.8048a34.133333 34.133333 0 0 1 47.445333-49.152l0.8192 0.887467 25.8048 25.8048a372.872533 372.872533 0 0 1 205.550933-85.265067v-36.386133a34.133333 34.133333 0 0 1 68.266667 0v36.386133a372.9408 372.9408 0 0 1 205.482667 85.265067l25.873066-25.8048a34.133333 34.133333 0 0 1 49.083734 47.445333l-0.8192 0.8192-25.8048 25.8048A373.009067 373.009067 0 0 1 885.077333 349.866667h36.386134a34.133333 34.133333 0 0 1 0 68.266666z m-375.466667 269.5168a303.786667 303.786667 0 0 0 156.535467-64.7168l-146.773334-146.773333a101.307733 101.307733 0 0 1-9.762133 3.959466v207.530667z m-68.266667 0v-207.530667a101.307733 101.307733 0 0 1-9.693866-3.959466l-146.773334 146.773333a303.786667 303.786667 0 0 0 156.535467 64.785067z m-204.8-112.981333l146.773334-146.773334A101.307733 101.307733 0 0 1 415.880533 418.133333H208.213333a303.786667 303.786667 0 0 0 64.7168 156.535467zM208.213333 349.866667h207.598934c1.160533-3.2768 2.4576-6.5536 3.959466-9.762134l-146.773333-146.773333a303.650133 303.650133 0 0 0-64.785067 156.535467zM477.866667 80.41813300000001a303.786667 303.786667 0 0 0-156.535467 64.785067l146.773333 146.773333c3.208533-1.501867 6.485333-2.798933 9.762134-3.959466v-207.598934z m68.266666 0v207.530667c3.345067 1.160533 6.5536 2.525867 9.762134 3.959467l146.773333-146.773334a303.650133 303.650133 0 0 0-156.535467-64.7168z m204.8 113.0496l-146.773333 146.773334c1.501867 3.140267 2.798933 6.417067 3.959467 9.762133h207.598933a303.650133 303.650133 0 0 0-64.853333-156.535467zM608.0512 418.133333a101.307733 101.307733 0 0 1-3.959467 9.762134l146.773334 146.773333a303.786667 303.786667 0 0 0 64.7168-156.4672h-207.530667z"  horiz-adv-x="1024" />

    
    <glyph glyph-name="bus" unicode="&#59002;" d="M273.066667 896C179.950933 896 68.266667 845.277867 68.266667 708.5397330000001V76.79999999999995s0-68.266667 68.266666-68.266667v-68.266666s0-68.266667 68.266667-68.266667 68.266667 68.266667 68.266667 68.266667v68.266666h477.866666v-68.266666s0-68.266667 68.266667-68.266667 68.266667 68.266667 68.266667 68.266667v68.266666s68.266667 0 68.266666 68.266667V708.5397330000001C955.733333 848.145067 871.355733 896 778.24 896H273.066667z m17.066666-102.4h443.733334a17.066667 17.066667 0 1 0 0-34.133333h-443.733334a17.066667 17.066667 0 1 0 0 34.133333zM204.8 691.2h614.4c68.266667 0 68.266667-66.013867 68.266667-66.013867V418.133333s0-68.266667-68.266667-68.266666H204.8C136.533333 349.866667 136.533333 418.133333 136.533333 418.133333V622.933333s0 68.266667 68.266667 68.266667z m0-477.866667a68.266667 68.266667 0 1 0 0-136.533333 68.266667 68.266667 0 0 0 0 136.533333z m614.4 0a68.266667 68.266667 0 1 0 0-136.533333 68.266667 68.266667 0 0 0 0 136.533333z"  horiz-adv-x="1024" />

    
    <glyph glyph-name="car" unicode="&#59006;" d="M955.733333 418.133333a102.4 102.4 0 0 1-78.506666 98.986667l-94.890667 221.184A34.133333 34.133333 0 0 1 750.933333 759.466667H273.066667a34.133333 34.133333 0 0 1-30.037334-19.114667L146.773333 517.8026669999999A102.4 102.4 0 0 1 68.266667 418.133333v-238.933333h68.266666v-68.266667a68.266667 68.266667 0 1 1 136.533334 0v68.266667h477.866666v-68.266667a68.266667 68.266667 0 1 1 136.533334 0v68.266667h68.266666V418.133333zM293.546667 691.2h436.906666l71.68-170.666667h-580.266666L293.546667 691.2zM204.8 281.6a68.266667 68.266667 0 1 0 0 136.533333 68.266667 68.266667 0 0 0 0-136.533333z m614.4 0a68.266667 68.266667 0 1 0 0 136.533333 68.266667 68.266667 0 0 0 0-136.533333z"  horiz-adv-x="1024" />

    
    <glyph glyph-name="cross" unicode="&#59014;" d="M180.224 809.301333L512 477.525333l330.410667 330.410667A62.805333 62.805333 0 0 0 887.466667 827.733333a68.266667 68.266667 0 0 0 68.266666-68.266666 61.44 61.44 0 0 0-18.432-45.056L603.477333 384l333.824-333.824A61.44 61.44 0 0 0 955.733333 8.53333299999997a68.266667 68.266667 0 0 0-68.266666-68.266666 62.805333 62.805333 0 0 0-47.104 18.432L512 290.47466699999995l-331.093333-331.093334A62.805333 62.805333 0 0 0 136.533333-59.733333000000016a68.266667 68.266667 0 0 0-68.266666 68.266666 61.44 61.44 0 0 0 18.432 45.056L420.522667 384 86.698667 717.8240000000001A61.44 61.44 0 0 0 68.266667 759.466667a68.266667 68.266667 0 0 0 68.266666 68.266666c16.384-0.2048 32.085333-6.826667 43.690667-18.432z"  horiz-adv-x="1024" />

    
    <glyph glyph-name="danger" unicode="&#59015;" d="M616.244855 104.68940799999996l289.465623-144.267433-41.884093-82.837429L512 52.566979999999944l-351.826385-175.913192-41.884093 82.837429L407.755145 104.68940799999996l-288.534865 144.267433 41.884093 82.837429L512 156.81183499999997l351.826385 175.913192 40.953335-83.768186-288.534865-144.267433zM791.227289 597.060195v-26.991972l-93.075763-93.075763v-93.075763l-186.151526-93.075763-186.151526 93.075763v93.075763l-93.075763 93.075763V616.6061050000001a269.919713 269.919713 0 0 0 279.227289 279.227289 287.604108 287.604108 0 0 0 279.227289-298.773199z m-352.757142 46.537881a73.529853 73.529853 0 1 1-73.529853-73.529853 73.529853 73.529853 0 0 1 73.529853 73.529853zM465.462118 476.99246h-46.537881v-93.075763H465.462118v93.075763z m139.613645 0H558.537882v-93.075763h46.537881v93.075763z m126.583038 166.605616a73.529853 73.529853 0 1 1-73.529853-73.529853 73.529853 73.529853 0 0 1 73.529853 73.529853z"  horiz-adv-x="1024" />

    
    <glyph glyph-name="fence" unicode="&#59024;" d="M884.363636 244.36363600000004H837.818182V430.545455h46.545454a46.545455 46.545455 0 0 1 0 93.090909H837.818182V616.727273l-25.879273 51.665454a23.645091 23.645091 0 0 1-41.239273 0L744.727273 616.727273v-93.090909H651.636364V616.727273l-25.879273 51.665454a23.645091 23.645091 0 0 1-41.239273 0L558.545455 616.727273v-93.090909H465.454545V616.727273l-25.879272 51.665454a23.645091 23.645091 0 0 1-41.239273 0L372.363636 616.727273v-93.090909H279.272727V616.727273l-25.879272 51.665454a23.645091 23.645091 0 0 1-41.239273 0L186.181818 616.727273v-93.090909h-46.545454a46.545455 46.545455 0 0 1 0-93.090909H186.181818v-186.181819h-46.545454a46.545455 46.545455 0 0 1 0-93.090909H186.181818v-46.545454a46.545455 46.545455 0 0 1 93.090909 0V151.27272700000003h93.090909v-46.545454a46.545455 46.545455 0 0 1 93.090909 0V151.27272700000003h93.09091v-46.545454a46.545455 46.545455 0 0 1 93.090909 0V151.27272700000003h93.090909v-46.545454a46.545455 46.545455 0 0 1 93.090909 0V151.27272700000003h46.545454a46.545455 46.545455 0 0 1 0 93.090909zM279.272727 244.36363600000004V430.545455h93.090909v-186.181819z m186.181818 0V430.545455h93.09091v-186.181819z m186.181819 0V430.545455h93.090909v-186.181819z"  horiz-adv-x="1024" />

    
    <glyph glyph-name="fuel" unicode="&#59027;" d="M884.363636 616.727273H837.818182V756.363636a46.545455 46.545455 0 0 1-93.090909 0V616.727273a93.090909 93.090909 0 0 1 93.090909-93.090909v-395.636364a23.272727 23.272727 0 1 0-46.545455 0V290.909091A139.636364 139.636364 0 0 1 651.636364 430.545455V709.818182a93.090909 93.090909 0 0 1-93.090909 93.090909H186.181818a93.090909 93.090909 0 0 1-93.090909-93.090909v-651.636364a93.090909 93.090909 0 0 1 93.090909-93.090909h372.363637a93.090909 93.090909 0 0 1 93.090909 93.090909V337.45454500000005a46.545455 46.545455 0 0 0 46.545454-46.545454v-162.909091a116.363636 116.363636 0 1 1 232.727273 0V570.181818a46.545455 46.545455 0 0 1-46.545455 46.545455zM558.545455 477.090909a45.614545 45.614545 0 0 0-44.683637-46.545454h-279.272727A47.476364 47.476364 0 0 0 186.181818 477.090909V616.727273a46.545455 46.545455 0 0 0 46.545455 46.545454h279.272727A46.545455 46.545455 0 0 0 558.545455 616.727273v-139.636364z"  horiz-adv-x="1024" />

    
    <glyph glyph-name="grocery" unicode="&#59033;" d="M901.12 836.2666666666667s-94.958933 2.798933-132.846933-34.133333c-36.4544-35.498667-51.473067-62.6688-51.473067-136.533334H81.92l95.163733-328.635733c0.2048-0.546133 0.682667-1.024 0.887467-1.501867 16.042667-44.8512 57.890133-77.141333 107.793067-79.0528l0.887466-0.4096h443.733334v-13.653333s0.068267-20.48-13.585067-47.786667c-13.653333-27.306667-20.48-40.96-75.093333-40.96H197.973333c-68.266667 0-68.266667-102.4 0-102.4H634.88c81.92 0 143.36 47.786667 163.84 95.573334 20.48 47.786667 20.48 88.746667 20.48 88.746666V665.5999996666667c0 35.771733 15.633067 68.266667 47.786667 68.266667h37.546666a51.2 51.2 0 0 1 0 102.4h-3.413333zM628.053333 51.19999966666671c-40.96 0-68.266667-27.306667-68.266666-68.266666s27.306667-68.266667 68.266666-68.266667 68.266667 27.306667 68.266667 68.266667-27.306667 68.266667-68.266667 68.266666z m-341.333333 0c-40.96 0-68.266667-27.306667-68.266667-68.266666s27.306667-68.266667 68.266667-68.266667 68.266667 27.306667 68.266667 68.266667-27.306667 68.266667-68.266667 68.266666z"  horiz-adv-x="1024" />

    
    <glyph glyph-name="horse-riding" unicode="&#59037;" d="M372.363636 802.909091a93.090909 93.090909 0 1 0 93.090909-93.090909 93.090909 93.090909 0 0 0-93.090909 93.090909z m640.465455-325.818182L837.818182 616.727273v46.545454L651.636364 430.545455H558.545455l93.090909-93.09091v-94.394181a46.545455 46.545455 0 1 0-93.090909 0V290.909091L372.363636 430.545455H279.272727a93.090909 93.090909 0 0 1-74.472727-41.518546A110.685091 110.685091 0 0 1 116.084364 430.545455 100.165818 100.165818 0 0 1 0 338.571636C0 216.43636400000003 59.112727 200.51781800000003 59.112727 200.51781800000003a30.72 30.72 0 0 1 10.705455-2.141091A23.552 23.552 0 0 1 93.090909 221.090909V337.45454500000005a45.614545 45.614545 0 0 0 44.683636 46.545455h1.861819A46.545455 46.545455 0 0 0 186.181818 337.45454500000005v-187.48509l-27.927273-55.854546a149.783273 149.783273 0 0 1-18.618181-55.854545v-143.546182a22.714182 22.714182 0 0 1 22.714181-22.714182 23.738182 23.738182 0 0 1 23.831273 22.714182V10.333090999999968a34.164364 34.164364 0 0 0 9.309091 27.927273l83.781818 111.709091V58.18181800000002l43.473455-169.053091a23.831273 23.831273 0 0 1 22.528-17.128727 23.272727 23.272727 0 0 1 23.272727 23.272727v1.489455l-22.528 149.876363a55.854545 55.854545 0 0 0 2.327273 21.969455l5.399273 16.197818L372.363636 151.27272700000003h186.181819v-93.090909l43.380363-169.053091a23.831273 23.831273 0 0 1 22.621091-17.128727 23.272727 23.272727 0 0 1 23.272727 23.272727l-22.434909 151.365818a55.854545 55.854545 0 0 0 2.327273 21.969455L651.636364 151.27272700000003a81.640727 81.640727 0 0 1 86.946909 61.533091L791.272727 477.090909a55.854545 55.854545 0 0 1 66.094546-42.263273 52.317091 52.317091 0 0 1 13.312 6.516364l83.781818-10.798545a67.118545 67.118545 0 0 1 36.491636-9.309091 30.813091 30.813091 0 0 1 33.047273 29.416727 37.794909 37.794909 0 0 1-11.170909 26.437818zM558.545455 570.181818a47.476364 47.476364 0 0 1-46.545455 46.545455h-93.090909a44.869818 44.869818 0 0 1-46.545455-46.545455V430.545455h186.181819z"  horiz-adv-x="1024" />

    
    <glyph glyph-name="hospital" unicode="&#59038;" d="M904.7272728125 514.9090912500001H642.90909125V776.7272728125a94.254545625 94.254545625 0 0 1-87.2727271875 87.2727271875H468.3636359375a94.254545625 94.254545625 0 0 1-87.2727271875-87.2727271875v-261.8181815625H119.27272718749998a94.254545625 94.254545625 0 0 1-87.2727271875-87.2727271875v-87.272728125a94.254545625 94.254545625 0 0 1 87.2727271875-87.2727271875h261.8181815625v-261.8181815625a94.254545625 94.254545625 0 0 1 87.2727271875-87.2727271875h87.272728125a94.254545625 94.254545625 0 0 1 87.2727271875 87.2727271875V253.09090875000004h261.8181815625a94.254545625 94.254545625 0 0 1 87.2727271875 87.2727271875V427.6363640625a87.2727271875 87.2727271875 0 0 1-87.2727271875 87.2727271875z"  horiz-adv-x="1024" />

    
    <glyph glyph-name="industry" unicode="&#59039;" d="M955.733333 827.733333v-819.2H68.266667V300.71466699999996a34.133333 34.133333 0 0 0 11.605333 25.258666l204.8 219.818667a34.133333 34.133333 0 0 0 56.661333-25.941333v-204.8l215.722667 230.058666a34.133333 34.133333 0 0 0 57.344-25.258666V145.06666700000005h204.8V827.733333h136.533333z"  horiz-adv-x="1024" />

    
    <glyph glyph-name="library" unicode="&#59044;" d="M32 776.7272728125v-610.90909125c284.50909125 0 479.1272728125-174.545454375 479.1272728125-174.545454375S709.2363640625 165.81818156250006 992 165.81818156250006V776.7272728125C642.90909125 776.7272728125 511.1272728125 626.1818184374999 511.1272728125 626.1818184374999S381.09090875 776.7272728125 32 776.7272728125z m87.2727271875-87.2727271875c104.29090875 2.705454375 266.4436359375-35.0836359375 349.09090875-117.643636875L512 514.9090912500001l43.6363640625 56.9018175c83.9563640625 81.1636359375 244.3636359375 118.69090874999999 349.09090875 117.643636875v-436.363636875c-174.545454375 0-292.7127271875-74.705454375-393.59999999999997-155.43272718749998C411.6363640625 178.64727281249998 293.81818156249994 253.09090875000004 119.27272718749998 253.09090875000004V689.454545625z m87.2727271875-113.7163640625v-15.796363125000001c71.82545437499999-14.8363640625 183.27272718749998-59.9563640625 261.8181815625-102.6327271875v19.8981815625c-80.02909125 41.8036359375-189.905454375 84.82909125-261.8181815625 98.6181815625z m610.90909125 0c-71.9127271875-13.7018184375-181.78909125-56.7272728125-261.8181815625-98.53090875000001v-19.8981815625c78.545454375 42.6763640625 189.9927271875 87.8836359375 261.8181815625 102.6327271875v15.796363125000001z m-610.90909125-80.29090875v-15.796364062499999c71.73818156249999-13.44 183.185454375-57.5127271875 261.8181815625-98.88v17.018182499999998c-80.02909125 41.5418184375-189.905454375 84.3927271875-261.8181815625 97.74545437500001z m610.90909125 0c-71.9127271875-13.265454375-181.78909125-56.116364062500004-261.8181815625-97.6581815625v-17.018182499999998c78.6327271875 41.3672728125 190.08 85.44 261.8181815625 98.88v15.796364062499999z m-610.90909125-78.0218184375V401.454545625c71.73818156249999-13.5272728125 183.0981815625-57.5127271875 261.8181815625-98.88v17.105454375c-80.1163640625 41.454545625-189.905454375 84.2181815625-261.8181815625 97.6581815625z m610.90909125 0c-71.9127271875-13.44-181.70181843749998-56.203635937499996-261.8181815625-97.74545437500001v-17.018181562499997c78.72 41.3672728125 190.08 85.44 261.8181815625 98.88v15.8836359375zM206.54545437500002 340.3636359375v-15.8836359375c71.56363593750001-12.2181815625 183.01090875-54.894545625 261.8181815625-94.865454375v13.090908749999999C388.2472728125 284.07272718749994 278.45818156250004 326.9236359375001 206.54545437500002 340.3636359375z m610.90909125 0c-71.9127271875-13.44-181.70181843749998-56.203635937499996-261.8181815625-97.74545437500001v-13.090908749999999c78.8072728125 40.058181562499996 190.25454562500002 82.734545625 261.8181815625 94.9527271875V340.3636359375z"  horiz-adv-x="1024" />

    
    <glyph glyph-name="landmark" unicode="&#59046;" d="M853.333333 76.79999999999995H819.2v34.133333c0 20.48-13.653333 34.133333-34.133333 34.133334H750.933333V486.4h68.266667l68.266667 136.533333c-68.266667-6.826667-136.533333-6.826667-204.8 0-54.613333 40.96-95.573333 81.92-136.533334 136.533334v34.133333c0 20.48-13.653333 34.133333-34.133333 34.133333s-34.133333-13.653333-34.133333-34.133333V759.466667c-40.96-54.613333-81.92-95.573333-136.533334-136.533334-68.266667-6.826667-136.533333-6.826667-204.8 0l68.266667-136.533333h68.266667v-341.333333h-34.133334c-20.48 0-34.133333-13.653333-34.133333-34.133334v-34.133333h-34.133333c-20.48 0-34.133333-13.653333-34.133334-34.133333v-34.133334h750.933334v34.133334c0 20.48-13.653333 34.133333-34.133334 34.133333zM477.866667 145.06666700000005H341.333333V486.4h136.533334v-341.333333z m204.8 0H546.133333V486.4h136.533334v-341.333333z"  horiz-adv-x="1024" />

    
    <glyph glyph-name="mountain" unicode="&#59057;" d="M512 759.466667c-20.48 0-27.306667-13.653333-40.96-27.306667l-395.946667-648.533333c-6.826667-6.826667-6.826667-20.48-6.826666-27.306667 0-34.133333 27.306667-47.786667 47.786666-47.786667h791.893334c27.306667 0 47.786667 13.653333 47.786666 47.786667 0 13.653333 0 13.653333-6.826666 27.306667L559.786667 732.16C546.133333 745.8133330000001 532.48 759.466667 512 759.466667z m0-102.4L737.28 281.6H682.666667L580.266667 384 512 281.6l-68.266667 102.4L341.333333 281.6h-61.44l232.106667 375.466667z"  horiz-adv-x="1024" />

    
    <glyph glyph-name="park" unicode="&#59058;" d="M1033.072642 546.881482A162.902427 162.902427 0 0 1 870.170215 709.783909a161.040685 161.040685 0 0 1-74.469681-18.61742A115.428005 115.428005 0 0 1 680.272529 802.87101a110.77365 110.77365 0 0 1-19.548291-4.654355A114.497134 114.497134 0 0 1 544.365362 895.958111a116.358876 116.358876 0 0 1-105.188425-67.953584A112.635392 112.635392 0 0 1 381.462935 847.552818a114.497134 114.497134 0 0 1-93.087101-51.197905A138.792868 138.792868 0 0 1 242.763154 802.87101a140.561522 140.561522 0 0 1-130.321941-193.62117A138.69978 138.69978 0 0 1 109.6486 337.43550500000003a138.69978 138.69978 0 0 1 237.372107-48.405293h11.170453c29.880959 0 58.644874 11.728975 80.054906 32.580486V-34.91289900000004L288.375834-128h465.435505l-148.939362 93.087101V58.17420200000004a783.79339 783.79339 0 0 0 221.547301 186.174202c24.202646 4.654355 46.54355 15.545546 65.16097 31.649614A138.69978 138.69978 0 0 1 939.985541 383.979055a135.907167 135.907167 0 0 1 0 15.824808c56.783132 26.995259 93.087101 84.150739 93.087101 147.077619z m-431.924149-418.891954V337.43550500000003h16.755678a141.492393 141.492393 0 0 1 49.336164 9.30871 139.630651 139.630651 0 0 1 82.84752-93.087101 821.121318 821.121318 0 0 1-148.939362-125.667586z"  horiz-adv-x="1033" />

    
    </font>
</defs>
</svg>
